<svg xmlns="http://www.w3.org/2000/svg" xmlns:xlink="http://www.w3.org/1999/xlink" version="1.1" x="0px" y="0px" style="enable-background:new 0 0 1500 1500;" xml:space="preserve" viewBox="396.5 298.2 707 903.6">
<style type="text/css">
	.Drop_x0020_Shadow{fill:none;}
	.Thick_x0020_Blue_x0020_Neon{fill:none;stroke:#0073BC;stroke-width:10;stroke-linecap:round;stroke-linejoin:round;}
	.Illuminating_x0020_Aqua{fill:url(#SVGID_1_);stroke:#FFFFFF;stroke-width:0.25;stroke-miterlimit:1;}
	.Black_x0020_Highlight{fill:url(#SVGID_2_);stroke:#FFFFFF;stroke-width:0.3629;stroke-miterlimit:1;}
	.Bugaboo_GS{fill-rule:evenodd;clip-rule:evenodd;fill:#FFDD00;}
	.st0{fill:#929292;}
	.st1{fill:#5E5E5E;}
	.st2{fill:#8C8C8C;}
	.st3{fill:none;}
	.st4{fill:#FFFFFF;}
</style>
<linearGradient id="SVGID_1_" gradientUnits="userSpaceOnUse" x1="0" y1="0" x2="6.123234e-17" y2="-1">
	<stop offset="0" style="stop-color:#1D59F4"/>
	<stop offset="0.618" style="stop-color:#2D65EE"/>
	<stop offset="0.6292" style="stop-color:#3864F3"/>
	<stop offset="0.9831" style="stop-color:#00DDFC"/>
</linearGradient>
<linearGradient id="SVGID_2_" gradientUnits="userSpaceOnUse" x1="0" y1="0" x2="6.123234e-17" y2="-1">
	<stop offset="0" style="stop-color:#060606"/>
	<stop offset="0.618" style="stop-color:#000000"/>
	<stop offset="0.6292" style="stop-color:#000000"/>
	<stop offset="0.9831" style="stop-color:#000000"/>
</linearGradient>
<g id="Layer_1">
</g>
<g id="Layer_2">
</g>
<g id="Layer_3">
	<g>
		<g>
			<g>
				<path class="st0" d="M423.5,1035.53c-1.2-0.88-2.36-1.52-3.48-1.92c-1.11-0.4-2.84-0.78-5.18-1.12      c-2.34-0.35-3.95-0.62-4.83-0.8c-0.87-0.18-1.79-0.47-2.74-0.88c-1.46-0.62-2.51-1.39-3.15-2.3c-0.64-0.91-0.96-1.88-0.96-2.91      c0-2.12,0.77-3.84,2.33-5.18c1.55-1.33,3.52-2,5.89-2c1.83,0,3.37,0.22,4.61,0.65c0.91,0.33,1.88,0.99,2.91,1.97      c1.49,1.49,2.24,3.08,2.24,4.75l-0.1,2.24l-0.06,0.88c0,2.03,0.71,3.05,2.14,3.05c0.72,0,1.29-0.27,1.71-0.82      c0.43-0.55,0.65-1.24,0.65-2.08l-0.24-4l-0.04-4.06l0.28-3.35c0-1.86-0.68-2.79-2.03-2.79c-1.17,0-1.76,0.64-1.76,1.92v1.8      c-1.06-1.09-1.93-1.87-2.6-2.33c-0.68-0.45-1.47-0.85-2.39-1.17c-1.61-0.52-3.23-0.77-4.88-0.77c-4.09,0-7.38,1.06-9.87,3.19      c-2.48,2.12-3.73,4.91-3.73,8.36c0,3.85,1.65,6.58,4.94,8.19c1.31,0.7,2.46,1.17,3.43,1.43c0.96,0.26,3.14,0.68,6.52,1.27      c3.38,0.58,5.62,1.26,6.72,2.03c1.72,1.03,2.58,2.77,2.58,5.22c0,2.54-0.88,4.53-2.64,6c-1.75,1.47-4.13,2.2-7.13,2.2      c-2.04,0-3.9-0.37-5.56-1.1c-1.67-0.74-2.92-1.77-3.76-3.1c-0.55-0.81-0.92-1.62-1.12-2.43c-0.2-0.81-0.3-1.97-0.3-3.48v-1.71      c0-0.52-0.02-0.94-0.06-1.27c-0.03-0.33-0.09-0.59-0.16-0.78c-0.37-0.77-1.08-1.16-2.14-1.16c-1.57,0-2.36,0.75-2.36,2.25v0.22      l0.49,4.66v4.94c-0.14,1.28-0.21,2.1-0.21,2.47v1.42c0,2.12,0.72,3.18,2.16,3.18c1.34,0,2-0.67,2-2.03v-2.41      c2.09,1.85,4.03,3.05,5.84,3.61c1.81,0.55,3.63,0.83,5.46,0.83c4.17,0,7.64-1.2,10.42-3.62c2.78-2.41,4.17-5.43,4.17-9.05      C427.51,1040.28,426.17,1037.58,423.5,1035.53z"/>
				<path class="st0" d="M465.67,1017.27c0-1.46-0.73-2.19-2.2-2.19h-0.93c-0.52,0.08-1.2,0.14-2.04,0.18      c-0.84,0.04-2,0.07-3.46,0.07l-8.59,0.18l-8.63-0.18c-1.69,0-2.92-0.03-3.69-0.07c-0.77-0.04-1.37-0.1-1.81-0.18h-0.94      c-1.47,0-2.2,0.73-2.2,2.19v0.38l0.44,5.71c0,0.73-0.03,1.49-0.08,2.3c-0.04,0.8-0.12,1.53-0.21,2.19l-0.15,2.03      c0,1.76,0.78,2.63,2.33,2.63c0.9,0,1.56-0.23,1.98-0.68c0.42-0.46,0.62-1.22,0.62-2.28l-0.21-3.45l-0.17-3.46      c0-2.63,1.56-3.95,4.69-3.95c1.94,0,3.32,0.31,4.13,0.94c0.41,0.29,0.75,0.65,1.02,1.09c0.28,0.44,0.42,0.86,0.42,1.26v25.94      c0,1.21-0.26,2.14-0.77,2.8c-0.51,0.66-1.21,0.99-2.09,0.99l-1.59-0.17l-1.09-0.11c-1.58,0-2.36,0.73-2.36,2.2      c0,1.35,0.88,2.02,2.63,2.02h0.88l1.81-0.3c1.72-0.16,2.83-0.25,3.34-0.27s1.08-0.03,1.7-0.03c0.4,0,0.94,0.01,1.59,0.03      c0.66,0.02,1.79,0.11,3.4,0.27l1.81,0.3h0.88c1.76,0,2.63-0.69,2.63-2.08c0-0.62-0.22-1.13-0.66-1.54c-0.43-0.4-1-0.6-1.7-0.6      l-1.09,0.11l-1.65,0.17c-1.86,0-2.79-1.27-2.79-3.79v-25.94c0-2.19,1.8-3.29,5.4-3.29c3.23,0,4.85,1.32,4.85,3.95l-0.16,3.46      l-0.22,3.45c0,1.98,0.86,2.96,2.6,2.96c1.55,0,2.33-0.87,2.33-2.63l-0.14-2.03c-0.17-0.98-0.26-1.81-0.27-2.47      c-0.02-0.65-0.03-1.33-0.03-2.02l0.44-5.71V1017.27z"/>
				<path class="st0" d="M502.52,1026.5c-0.95-2.86-2.23-5.23-3.84-7.09c-1.35-1.64-3.07-2.9-5.15-3.78      c-2.08-0.87-4.39-1.31-6.91-1.31c-5.08,0-9.1,1.69-12.06,5.09c-1.65,1.86-2.93,4.19-3.84,6.98c-0.92,2.8-1.37,5.73-1.37,8.79      c0,3.03,0.46,5.99,1.39,8.87c0.94,2.89,2.21,5.26,3.82,7.12c2.96,3.36,6.98,5.04,12.06,5.04c2.52,0,4.83-0.44,6.94-1.31      c2.1-0.88,3.81-2.12,5.12-3.73c1.61-1.93,2.89-4.32,3.84-7.17c0.95-2.85,1.43-5.77,1.43-8.76      C503.95,1032.27,503.47,1029.36,502.52,1026.5z M495.26,1047.47c-2.11,2.98-4.98,4.47-8.64,4.47c-3.66,0-6.53-1.49-8.64-4.47      c-2.1-2.97-3.15-7.07-3.15-12.29c0-5.11,1.06-9.15,3.18-12.12c2.12-2.98,4.99-4.47,8.61-4.47c3.66,0,6.53,1.49,8.64,4.47      c2.1,2.97,3.15,7.05,3.15,12.23C498.41,1040.44,497.36,1044.5,495.26,1047.47z"/>
				<path class="st0" d="M541.57,1038.82c-0.77,0-1.37,0.22-1.81,0.65c-0.44,0.44-0.66,1.02-0.66,1.75v1.48      c0,2.84-0.98,5.11-2.93,6.82c-1.96,1.71-4.55,2.57-7.76,2.57c-4.06,0-7.26-1.54-9.6-4.61c-2.34-3.07-3.51-7.22-3.51-12.44      c0-5.12,1.11-9.17,3.34-12.15c2.23-2.98,5.25-4.47,9.05-4.47c1.5,0,2.95,0.19,4.34,0.58c1.38,0.38,2.44,0.89,3.18,1.51      c0.87,0.77,1.6,1.88,2.19,3.33c0.58,1.45,0.88,3.04,0.88,4.76v2.04c0,1.43,0.75,2.15,2.27,2.15c1.3,0,1.95-0.92,1.95-2.75v-1.16      c-0.15-1.68-0.24-2.93-0.28-3.74c-0.03-0.8-0.05-1.56-0.05-2.25l0.14-3.52l0.19-2.97c0-1.4-0.6-2.09-1.78-2.09      c-1.37,0-2.06,0.74-2.06,2.22l0.06,0.67l0.21,1.22l0.11,1.04c-0.47-0.58-0.82-1-1.04-1.26c-0.4-0.47-0.78-0.86-1.15-1.15      c-1.06-0.88-2.36-1.55-3.89-2.03c-1.54-0.47-3.22-0.71-5.05-0.71c-2.96,0-5.63,0.6-8,1.8c-2.38,1.21-4.3,2.93-5.76,5.15      c-1.24,1.9-2.24,4.15-2.99,6.74c-0.75,2.59-1.12,5.11-1.12,7.56c0,4.19,0.88,8.02,2.66,11.47c1.77,3.45,4.08,5.87,6.93,7.26      c2.56,1.27,5.41,1.91,8.56,1.91c4.68,0,8.47-1.35,11.38-4.04c2.9-2.7,4.35-6.22,4.35-10.55      C543.92,1039.75,543.14,1038.82,541.57,1038.82z"/>
				<path class="st0" d="M591.36,1051.44h-0.82l-1.7,0.22c-0.66,0-1.3-0.25-1.92-0.77l-1.37-1.26c-0.11-0.29-0.5-0.84-1.16-1.64      l-11.73-15.47l-0.71-0.93c-0.37-0.4-0.5-0.66-0.39-0.77l0.66-0.5l0.71-0.6l11.41-9.26l0.92-0.78c0.22-0.22,0.59-0.42,1.1-0.6      c0.47-0.25,1.02-0.38,1.65-0.38l0.82,0.05l1.54,0.17h0.38c0.62,0,1.15-0.2,1.57-0.62c0.42-0.41,0.63-0.93,0.63-1.54      c0-0.61-0.21-1.09-0.63-1.44c-0.42-0.34-0.98-0.51-1.68-0.51c-0.77,0-1.63,0.09-2.58,0.28c-0.96,0.18-1.72,0.29-2.29,0.32      c-0.56,0.04-1.47,0.06-2.72,0.06c-0.84,0-1.77-0.04-2.77-0.11c-1.01-0.07-2.07-0.2-3.17-0.38l-2.25-0.17      c-1.83,0-2.75,0.7-2.75,2.08c0,1.36,1.01,2.03,3.04,2.03h0.83l1.94-0.16c0.59,0,0.88,0.18,0.88,0.55c0,0.25-0.11,0.49-0.33,0.71      l-0.65,0.55l-17.17,14.48v-12.4c0-1.2,0.26-2.14,0.77-2.82s1.2-1.02,2.08-1.02l1.54,0.11l1.2,0.11c1.54,0,2.31-0.71,2.31-2.14      c0-1.38-0.86-2.08-2.58-2.08l-0.93,0.07l-1.76,0.32c-0.84,0.13-1.69,0.22-2.55,0.26c-0.86,0.04-1.67,0.06-2.44,0.06      c-0.14,0-0.81-0.02-2-0.06c-1.19-0.04-2.18-0.13-2.99-0.26l-1.75-0.32l-0.93-0.07c-1.76,0-2.64,0.7-2.64,2.08      c0,1.43,0.79,2.14,2.36,2.14l1.15-0.11l1.59-0.11c1.9,0,2.85,1.28,2.85,3.84v25.28c0,1.21-0.25,2.14-0.76,2.8      c-0.52,0.66-1.21,0.99-2.09,0.99l-1.59-0.17l-1.15-0.11c-1.57,0-2.36,0.73-2.36,2.2c0,1.35,0.88,2.02,2.64,2.02h0.93l1.75-0.3      c1.9-0.2,3.57-0.3,4.99-0.3c1.43,0,3.09,0.1,4.99,0.3l1.76,0.3h0.93c1.72,0,2.58-0.69,2.58-2.08c0-0.62-0.22-1.13-0.66-1.54      c-0.44-0.4-0.99-0.6-1.65-0.6l-1.2,0.11l-1.59,0.17c-0.88,0-1.57-0.34-2.06-1.02c-0.49-0.67-0.74-1.59-0.74-2.76l0.02-7.6      l5.71-4.89l1.02-0.79l0.49-0.16c0.33,0,0.76,0.33,1.31,0.99l10.11,13.69l0.95,1.34l0.13,0.44c0,0.39-0.29,0.59-0.88,0.59      l-3.61-0.11h-0.83c-1.97,0-2.96,0.72-2.96,2.17c0,1.37,0.88,2.05,2.63,2.05c0.7,0,1.41-0.07,2.14-0.23      c1.57-0.28,3.35-0.42,5.32-0.42c2.38,0,4.92,0.22,7.62,0.65h1.37c1.76,0,2.64-0.71,2.64-2.13      C593.83,1052.14,593,1051.44,591.36,1051.44z"/>
				<path class="st0" d="M648.75,1021.8c-0.53-1.24-1.38-2.4-2.55-3.5c-1.36-1.31-2.84-2.21-4.45-2.71      c-1.61-0.49-3.91-0.73-6.91-0.73h-3.56l-7.4,0.7c-0.19,0.04-0.52,0.06-0.99,0.06c-1.21,0-2.41-0.1-3.62-0.32      c-1.21-0.22-2.01-0.35-2.41-0.39c-0.41-0.03-0.75-0.05-1.04-0.05c-1.72,0-2.58,0.69-2.58,2.08c0,1.43,0.78,2.14,2.36,2.14h1.15      l1.59-0.39c1.9,0,2.85,1.29,2.85,3.85v25.36c0,1.21-0.26,2.14-0.77,2.8c-0.51,0.66-1.2,0.99-2.08,0.99l-1.59-0.16l-1.15-0.11      c-1.58,0-2.36,0.73-2.36,2.2c0,1.36,0.88,2.03,2.63,2.03h0.93l1.76-0.3c1.24-0.12,2.17-0.2,2.79-0.24      c0.63-0.04,1.48-0.06,2.58-0.06c0.44,0,1.05,0.01,1.84,0.03c0.78,0.02,1.96,0.11,3.54,0.27l1.75,0.3h0.99      c1.68,0,2.52-0.69,2.52-2.08c0-0.66-0.21-1.18-0.63-1.56c-0.42-0.39-0.96-0.58-1.62-0.58l-1.15,0.11l-2.19,0.17      c-2.05,0-3.07-1.27-3.07-3.79v-8.99c0-0.33,0.2-0.55,0.6-0.66c0.4-0.11,1.15-0.16,2.25-0.16h4c5.7,0,9.93-0.97,12.67-2.9      c2.74-1.94,4.11-4.94,4.11-9.03C649.54,1024.5,649.28,1023.04,648.75,1021.8z M641.67,1032.43c-1.84,1.27-4.76,1.9-8.74,1.9      c-1.1,0-2.31-0.05-3.62-0.16c-1.32-0.11-2.22-0.21-2.69-0.28c-0.29-0.11-0.49-0.28-0.58-0.52c-0.09-0.24-0.13-0.82-0.13-1.74      v-9.5c0-1.07,0.12-1.79,0.38-2.16s0.79-0.62,1.59-0.77l0.88-0.11c0.8-0.11,1.68-0.2,2.63-0.28c0.95-0.07,1.9-0.11,2.85-0.11      c2.19,0,3.96,0.21,5.29,0.61c1.34,0.41,2.41,1.05,3.21,1.93c1.13,1.22,1.7,2.97,1.7,5.25      C644.44,1029.18,643.52,1031.16,641.67,1032.43z"/>
				<path class="st0" d="M694.89,1040.64c-0.07-0.4-0.23-0.73-0.47-0.99c-0.53-0.47-1.1-0.71-1.7-0.71c-0.95,0-1.6,0.25-1.93,0.74      c-0.34,0.49-0.51,1.42-0.51,2.77v3.78c0,1.5-0.03,2.6-0.11,3.29c-0.07,0.7-0.2,1.18-0.39,1.46c-0.18,0.27-0.63,0.5-1.33,0.68      h-0.55c-1.37,0-2.06-1.17-2.06-3.5v-2.35c0-2.66-0.18-4.69-0.55-6.09c-0.36-1.41-0.97-2.44-1.81-3.12      c-0.84-0.67-2.41-1.3-4.71-1.88c1.24-0.19,2.15-0.37,2.71-0.55c0.57-0.18,1.27-0.51,2.11-0.99c1.03-0.58,1.89-1.31,2.58-2.19      c0.55-0.73,0.95-1.57,1.21-2.5c0.25-0.93,0.38-1.93,0.38-2.99c0-2.59-0.64-4.75-1.92-6.47c-1.9-2.74-5.7-4.11-11.4-4.11      c-1.1,0.07-2.12,0.13-3.05,0.17c-0.93,0.03-1.82,0.05-2.66,0.05c-0.76,0.04-1.83,0.15-3.18,0.33c-0.62,0.04-1.83,0.05-3.62,0.05      c-0.07,0-0.65-0.02-1.75-0.07c-1.1-0.05-2.05-0.16-2.85-0.31l-1.76-0.22h-0.93c-1.76,0-2.63,0.69-2.63,2.08      c0,1.43,0.78,2.14,2.36,2.14l1.15-0.11l1.59-0.22c1.9,0,2.85,1.28,2.85,3.84v25.23c0,1.21-0.26,2.14-0.77,2.8      c-0.51,0.65-1.2,0.98-2.08,0.98l-1.59-0.16l-1.15-0.11c-1.58,0-2.36,0.74-2.36,2.22c0,1.37,0.87,2.05,2.63,2.05h0.93l1.76-0.3      c1.9-0.2,3.56-0.3,4.99-0.3c1.42,0,3.09,0.1,4.99,0.3l1.75,0.3h0.93c1.72,0,2.58-0.69,2.58-2.08c0-0.62-0.22-1.13-0.66-1.54      c-0.44-0.4-0.98-0.6-1.64-0.6l-1.21,0.09l-1.59,0.13c-0.88,0-1.56-0.34-2.05-1.01c-0.5-0.67-0.74-1.59-0.74-2.76v-9.23      c0-0.73,0.12-1.22,0.38-1.48c0.25-0.25,0.73-0.38,1.42-0.38l5.1-0.16h1.49c1.64,0,2.84,0.07,3.59,0.22      c0.75,0.14,1.38,0.4,1.89,0.76c0.88,0.62,1.44,1.29,1.7,2.02c0.25,0.73,0.38,2.04,0.38,3.94l0.17,4.54      c0,2.15,0.15,3.62,0.46,4.4c0.31,0.78,0.94,1.45,1.89,2c1.2,0.76,2.73,1.14,4.59,1.14c2.69,0,4.57-0.62,5.65-1.86      c1.07-1.25,1.61-3.44,1.61-6.58v-3.95C695,1041.92,694.96,1041.03,694.89,1040.64z M676.9,1032.29      c-0.87,0.11-1.92,0.21-3.12,0.28c-1.21,0.07-2.25,0.11-3.13,0.11h-4.66c-0.55,0-0.9-0.08-1.07-0.25      c-0.16-0.17-0.24-0.58-0.24-1.24v-8.9c0-1.25,0.32-2.12,0.98-2.6c0.48-0.44,1.37-0.77,2.69-0.99c1.32-0.22,2.87-0.33,4.66-0.33      c6.54,0,9.82,2.26,9.82,6.8c0,1.02-0.24,2.12-0.72,3.29c-0.47,1.17-1.02,1.99-1.64,2.46      C679.59,1031.62,678.4,1032.07,676.9,1032.29z"/>
				<path class="st0" d="M734.65,1042.5v-1.75c0-0.73-0.2-1.32-0.6-1.76c-0.4-0.43-0.94-0.65-1.62-0.65c-0.62,0-1.11,0.24-1.49,0.74      c-0.38,0.49-0.57,1.12-0.57,1.89v5.21c0,0.95-0.13,1.81-0.38,2.57c-0.26,0.77-0.59,1.3-0.99,1.59c-1.06,0.63-2.76,0.94-5.1,0.94      h-9.27c-1.28,0-2.13-0.23-2.55-0.69s-0.63-1.34-0.63-2.63v-8.12c0-1.07,0.05-1.75,0.14-2.04c0.09-0.3,0.34-0.52,0.74-0.67      c0.44-0.22,1.2-0.33,2.26-0.33c2.62,0,4.33,0.14,5.13,0.41c0.81,0.28,1.22,1.05,1.22,2.33l-0.22,2.96v0.83      c0,1.64,0.71,2.46,2.14,2.46c1.5,0,2.24-0.84,2.24-2.51v-1.1c-0.1-1.09-0.23-2.28-0.38-3.58c-0.14-1.29-0.22-2.51-0.22-3.64      c0-1.42,0.2-3.15,0.6-5.19l0.17-2.9c0-1.83-0.75-2.74-2.25-2.74c-1.53,0-2.3,0.82-2.3,2.46l0.22,3.1v0.49      c0,0.98-0.33,1.67-0.99,2.07c-0.66,0.4-1.77,0.6-3.34,0.6h-3.13c-0.88,0-1.44-0.12-1.67-0.35c-0.24-0.24-0.36-0.78-0.36-1.62      v-9.65c0-0.22,0.15-0.53,0.44-0.94c0.18-0.25,0.44-0.45,0.77-0.6c0.51-0.25,1.22-0.42,2.14-0.49c0.91-0.08,2.34-0.11,4.27-0.11      c4.79,0,7.95,0.47,9.49,1.42c0.8,0.44,1.21,1.83,1.21,4.17v0.6l-0.22,2.42l-0.06,0.77c0,1.35,0.17,2.31,0.5,2.87      c0.32,0.57,0.87,0.85,1.64,0.85c1.5,0,2.25-0.92,2.25-2.75l-0.05-0.83l-0.06-1.05l-0.16-3.98l0.54-5.29      c0.04-0.04,0.08-0.21,0.11-0.5c0-0.85-0.26-1.54-0.79-2.07s-1.18-0.8-1.95-0.8l-1.53,0.15c-1.06,0.14-2.5,0.27-4.31,0.36      c-1.81,0.1-4.21,0.15-7.21,0.15h-4.39c-4.79,0-8.11-0.12-9.98-0.36l-1.75-0.3h-0.93c-1.76,0-2.64,0.69-2.64,2.06      c0,1.4,0.79,2.11,2.36,2.11h1.15l1.54-0.28c1.94,0,2.91,1.28,2.91,3.84v25.28c0,1.21-0.26,2.14-0.77,2.8      c-0.52,0.66-1.21,0.99-2.09,0.99l-1.59-0.27l-1.15-0.17c-1.57,0-2.36,0.76-2.36,2.28c0,1.4,0.83,2.1,2.47,2.1h1.1      c3.21-0.34,4.93-0.51,5.15-0.51c1.39-0.13,2.6-0.2,3.62-0.2l8.61,0.22l8.83,0.49h2.69c2.12,0,3.18-0.89,3.18-2.7l-0.11-1.57      v-5.05L734.65,1042.5z"/>
				<path class="st0" d="M767.88,1035.53c-1.21-0.88-2.37-1.52-3.48-1.92c-1.12-0.4-2.85-0.78-5.19-1.12      c-2.34-0.35-3.94-0.62-4.82-0.8c-0.88-0.18-1.79-0.47-2.74-0.88c-1.47-0.62-2.52-1.39-3.16-2.3c-0.64-0.91-0.96-1.88-0.96-2.91      c0-2.12,0.78-3.84,2.33-5.18c1.56-1.33,3.52-2,5.9-2c1.83,0,3.36,0.22,4.61,0.65c0.91,0.33,1.88,0.99,2.9,1.97      c1.5,1.49,2.25,3.08,2.25,4.75l-0.11,2.24l-0.05,0.88c0,2.03,0.71,3.05,2.14,3.05c0.71,0,1.28-0.27,1.71-0.82      c0.43-0.55,0.64-1.24,0.64-2.08l-0.23-4l-0.04-4.06l0.27-3.35c0-1.86-0.67-2.79-2.03-2.79c-1.17,0-1.75,0.64-1.75,1.92v1.8      c-1.06-1.09-1.93-1.87-2.61-2.33c-0.67-0.45-1.47-0.85-2.38-1.17c-1.61-0.52-3.24-0.77-4.88-0.77c-4.1,0-7.39,1.06-9.87,3.19      c-2.49,2.12-3.73,4.91-3.73,8.36c0,3.85,1.64,6.58,4.93,8.19c1.32,0.7,2.46,1.17,3.43,1.43s3.14,0.68,6.53,1.27      c3.38,0.58,5.62,1.26,6.71,2.03c1.72,1.03,2.58,2.77,2.58,5.22c0,2.54-0.88,4.53-2.63,6c-1.76,1.47-4.13,2.2-7.13,2.2      c-2.05,0-3.9-0.37-5.57-1.1c-1.66-0.74-2.91-1.77-3.75-3.1c-0.55-0.81-0.93-1.62-1.13-2.43s-0.3-1.97-0.3-3.48v-1.71      c0-0.52-0.02-0.94-0.05-1.27c-0.04-0.33-0.09-0.59-0.17-0.78c-0.36-0.77-1.08-1.16-2.14-1.16c-1.57,0-2.35,0.75-2.35,2.25v0.22      l0.49,4.66v4.94c-0.15,1.28-0.22,2.1-0.22,2.47v1.42c0,2.12,0.72,3.18,2.17,3.18c1.33,0,2-0.67,2-2.03v-2.41      c2.08,1.85,4.03,3.05,5.84,3.61c1.81,0.55,3.63,0.83,5.45,0.83c4.17,0,7.64-1.2,10.42-3.62c2.78-2.41,4.17-5.43,4.17-9.05      C771.88,1040.28,770.55,1037.58,767.88,1035.53z"/>
				<path class="st0" d="M812.24,1042.5v-1.75c0-0.73-0.2-1.32-0.59-1.76c-0.4-0.43-0.94-0.65-1.63-0.65      c-0.61,0-1.11,0.24-1.49,0.74c-0.38,0.49-0.57,1.12-0.57,1.89v5.21c0,0.95-0.12,1.81-0.38,2.57c-0.26,0.77-0.59,1.3-0.99,1.59      c-1.06,0.63-2.76,0.94-5.1,0.94h-9.26c-1.29,0-2.13-0.23-2.55-0.69c-0.43-0.46-0.63-1.34-0.63-2.63v-8.12      c0-1.07,0.04-1.75,0.13-2.04c0.09-0.3,0.34-0.52,0.75-0.67c0.44-0.22,1.19-0.33,2.26-0.33c2.61,0,4.32,0.14,5.13,0.41      c0.81,0.28,1.21,1.05,1.21,2.33l-0.22,2.96v0.83c0,1.64,0.72,2.46,2.14,2.46c1.5,0,2.25-0.84,2.25-2.51v-1.1      c-0.11-1.09-0.24-2.28-0.38-3.58c-0.15-1.29-0.22-2.51-0.22-3.64c0-1.42,0.2-3.15,0.6-5.19l0.16-2.9c0-1.83-0.75-2.74-2.24-2.74      c-1.54,0-2.31,0.82-2.31,2.46l0.22,3.1v0.49c0,0.98-0.33,1.67-0.99,2.07c-0.65,0.4-1.77,0.6-3.34,0.6h-3.13      c-0.87,0-1.43-0.12-1.67-0.35c-0.24-0.24-0.35-0.78-0.35-1.62v-9.65c0-0.22,0.14-0.53,0.43-0.94c0.19-0.25,0.44-0.45,0.77-0.6      c0.51-0.25,1.23-0.42,2.14-0.49c0.91-0.08,2.34-0.11,4.28-0.11c4.79,0,7.95,0.47,9.48,1.42c0.81,0.44,1.21,1.83,1.21,4.17v0.6      l-0.22,2.42l-0.05,0.77c0,1.35,0.16,2.31,0.49,2.87c0.33,0.57,0.88,0.85,1.64,0.85c1.5,0,2.25-0.92,2.25-2.75l-0.05-0.83      l-0.06-1.05l-0.16-3.98l0.55-5.29c0.03-0.04,0.07-0.21,0.11-0.5c0-0.85-0.27-1.54-0.8-2.07s-1.18-0.8-1.94-0.8l-1.54,0.15      c-1.06,0.14-2.5,0.27-4.3,0.36c-1.81,0.1-4.22,0.15-7.22,0.15h-4.38c-4.79,0-8.12-0.12-9.98-0.36l-1.76-0.3h-0.93      c-1.76,0-2.63,0.69-2.63,2.06c0,1.4,0.78,2.11,2.35,2.11h1.16l1.53-0.28c1.94,0,2.91,1.28,2.91,3.84v25.28      c0,1.21-0.26,2.14-0.77,2.8c-0.51,0.66-1.21,0.99-2.08,0.99l-1.59-0.27l-1.16-0.17c-1.57,0-2.35,0.76-2.35,2.28      c0,1.4,0.82,2.1,2.47,2.1h1.09c3.22-0.34,4.94-0.51,5.16-0.51c1.39-0.13,2.59-0.2,3.62-0.2l8.61,0.22l8.82,0.49h2.69      c2.12,0,3.18-0.89,3.18-2.7l-0.11-1.57v-5.05L812.24,1042.5z"/>
				<path class="st0" d="M851.23,1017.27c0-1.46-0.73-2.19-2.2-2.19h-0.94c-0.51,0.08-1.19,0.14-2.03,0.18      c-0.84,0.04-2,0.07-3.47,0.07l-8.58,0.18l-8.64-0.18c-1.68,0-2.91-0.03-3.68-0.07c-0.77-0.04-1.38-0.1-1.82-0.18h-0.93      c-1.47,0-2.2,0.73-2.2,2.19v0.38l0.44,5.71c0,0.73-0.03,1.49-0.08,2.3c-0.05,0.8-0.12,1.53-0.22,2.19l-0.14,2.03      c0,1.76,0.78,2.63,2.33,2.63c0.9,0,1.56-0.23,1.98-0.68c0.42-0.46,0.62-1.22,0.62-2.28l-0.22-3.45l-0.16-3.46      c0-2.63,1.56-3.95,4.69-3.95c1.94,0,3.32,0.31,4.13,0.94c0.4,0.29,0.74,0.65,1.02,1.09c0.28,0.44,0.41,0.86,0.41,1.26v25.94      c0,1.21-0.25,2.14-0.76,2.8c-0.52,0.66-1.21,0.99-2.09,0.99l-1.59-0.17l-1.09-0.11c-1.58,0-2.36,0.73-2.36,2.2      c0,1.35,0.87,2.02,2.63,2.02h0.88l1.81-0.3c1.71-0.16,2.83-0.25,3.34-0.27s1.08-0.03,1.7-0.03c0.4,0,0.93,0.01,1.59,0.03      s1.79,0.11,3.4,0.27l1.81,0.3h0.88c1.75,0,2.63-0.69,2.63-2.08c0-0.62-0.22-1.13-0.66-1.54c-0.44-0.4-1-0.6-1.7-0.6l-1.09,0.11      l-1.65,0.17c-1.86,0-2.79-1.27-2.79-3.79v-25.94c0-2.19,1.8-3.29,5.4-3.29c3.23,0,4.85,1.32,4.85,3.95l-0.17,3.46l-0.21,3.45      c0,1.98,0.86,2.96,2.6,2.96c1.55,0,2.33-0.87,2.33-2.63l-0.15-2.03c-0.16-0.98-0.25-1.81-0.26-2.47      c-0.02-0.65-0.03-1.33-0.03-2.02l0.44-5.71V1017.27z"/>
				<path class="st0" d="M907.44,1022.27c-3.15-4.91-8.28-7.36-15.41-7.36c-1.1,0-2.09,0.02-2.99,0.06      c-0.9,0.03-1.87,0.12-2.93,0.27l-5.49,0.27c-0.07,0-0.67-0.02-1.81-0.06c-1.13-0.04-2.1-0.12-2.9-0.24l-1.76-0.3h-0.93      c-1.75,0-2.63,0.69-2.63,2.08c0,1.43,0.78,2.14,2.36,2.14h1.15l1.59-0.33c1.9,0,2.85,1.28,2.85,3.84v25.28      c0,1.21-0.26,2.14-0.77,2.8c-0.51,0.66-1.2,0.99-2.08,0.99h-1.59l-1.15-0.28c-1.58,0-2.36,0.73-2.36,2.2      c0,1.35,0.88,2.02,2.63,2.02h0.93l1.76-0.3c1.9-0.2,3.49-0.3,4.77-0.3l5.21,0.3c2.12,0.2,3.93,0.3,5.43,0.3      c4.46,0,7.98-0.66,10.58-2c2.59-1.34,4.77-3.64,6.53-6.92c1.75-3.28,2.63-7.02,2.63-11.23      C911.06,1030.3,909.85,1025.9,907.44,1022.27z M904.04,1044.47c-0.55,1.13-1.14,2.12-1.78,2.96c-0.64,0.84-1.29,1.5-1.95,1.98      c-1.02,0.73-2.38,1.3-4.06,1.7c-1.68,0.41-3.51,0.61-5.48,0.61c-2.05,0-3.93-0.22-5.65-0.66c-0.51-0.11-0.93-0.26-1.26-0.44      c-0.37-0.33-0.56-0.82-0.58-1.46c-0.02-0.64-0.03-1.33-0.03-2.06v-22.79l-0.16-3.08c0-0.84,0.44-1.37,1.32-1.59      c1.09-0.33,3.01-0.5,5.75-0.5c3.48,0,6.19,0.42,8.15,1.27c1.95,0.84,3.57,2.27,4.85,4.28c0.91,1.47,1.59,3.12,2.03,4.97      c0.44,1.85,0.66,3.84,0.66,5.96C905.85,1038.8,905.24,1041.75,904.04,1044.47z"/>
				<path class="st0" d="M951.42,1042.5v-1.75c0-0.73-0.2-1.32-0.6-1.76c-0.4-0.43-0.94-0.65-1.62-0.65c-0.62,0-1.11,0.24-1.49,0.74      c-0.38,0.49-0.57,1.12-0.57,1.89v5.21c0,0.95-0.13,1.81-0.38,2.57c-0.26,0.77-0.59,1.3-0.99,1.59c-1.06,0.63-2.76,0.94-5.1,0.94      h-9.27c-1.28,0-2.13-0.23-2.55-0.69c-0.42-0.46-0.63-1.34-0.63-2.63v-8.12c0-1.07,0.05-1.75,0.14-2.04      c0.09-0.3,0.34-0.52,0.74-0.67c0.44-0.22,1.2-0.33,2.27-0.33c2.61,0,4.32,0.14,5.13,0.41c0.8,0.28,1.21,1.05,1.21,2.33      l-0.22,2.96v0.83c0,1.64,0.71,2.46,2.14,2.46c1.5,0,2.25-0.84,2.25-2.51v-1.1c-0.11-1.09-0.24-2.28-0.39-3.58      c-0.14-1.29-0.22-2.51-0.22-3.64c0-1.42,0.2-3.15,0.61-5.19l0.16-2.9c0-1.83-0.75-2.74-2.25-2.74c-1.53,0-2.3,0.82-2.3,2.46      l0.22,3.1v0.49c0,0.98-0.33,1.67-0.99,2.07c-0.66,0.4-1.77,0.6-3.34,0.6h-3.13c-0.88,0-1.43-0.12-1.67-0.35      c-0.24-0.24-0.36-0.78-0.36-1.62v-9.65c0-0.22,0.15-0.53,0.44-0.94c0.18-0.25,0.44-0.45,0.77-0.6c0.51-0.25,1.22-0.42,2.14-0.49      c0.91-0.08,2.34-0.11,4.27-0.11c4.79,0,7.96,0.47,9.49,1.42c0.8,0.44,1.21,1.83,1.21,4.17v0.6l-0.22,2.42l-0.06,0.77      c0,1.35,0.17,2.31,0.5,2.87c0.33,0.57,0.87,0.85,1.64,0.85c1.5,0,2.25-0.92,2.25-2.75l-0.05-0.83l-0.06-1.05l-0.16-3.98      l0.54-5.29c0.04-0.04,0.08-0.21,0.11-0.5c0-0.85-0.26-1.54-0.79-2.07c-0.53-0.53-1.18-0.8-1.95-0.8l-1.53,0.15      c-1.06,0.14-2.5,0.27-4.31,0.36c-1.81,0.1-4.21,0.15-7.21,0.15h-4.39c-4.79,0-8.11-0.12-9.98-0.36l-1.75-0.3h-0.93      c-1.76,0-2.64,0.69-2.64,2.06c0,1.4,0.79,2.11,2.36,2.11h1.15l1.54-0.28c1.94,0,2.91,1.28,2.91,3.84v25.28      c0,1.21-0.26,2.14-0.77,2.8c-0.51,0.66-1.21,0.99-2.09,0.99l-1.59-0.27l-1.15-0.17c-1.57,0-2.36,0.76-2.36,2.28      c0,1.4,0.83,2.1,2.47,2.1h1.1c3.22-0.34,4.93-0.51,5.15-0.51c1.39-0.13,2.6-0.2,3.62-0.2l8.61,0.22l8.83,0.49h2.69      c2.12,0,3.18-0.89,3.18-2.7l-0.11-1.57v-5.05L951.42,1042.5z"/>
				<path class="st0" d="M1000.06,1015.4c-0.37-0.39-0.82-0.59-1.37-0.59h-0.77c-2.05,0.32-3.57,0.52-4.55,0.6      c-0.99,0.07-2.1,0.11-3.35,0.11c-0.18,0-0.76-0.01-1.72-0.05c-0.97-0.04-1.77-0.11-2.39-0.22l-3.4-0.44      c-1.68,0-2.52,0.7-2.52,2.08c0,1.28,0.77,1.92,2.3,1.92l2.91-0.22c0.58,0,1.09,0.2,1.51,0.58c0.42,0.39,0.63,0.87,0.63,1.45      l-0.44,1.65l-8.39,26.82l-0.16,1.15c-0.04,0.18-0.08,0.37-0.14,0.57c-0.06,0.2-0.12,0.36-0.19,0.47      c-0.08-0.11-0.13-0.25-0.17-0.41c-0.03-0.17-0.07-0.38-0.11-0.64l-0.15-1.15l-8.69-26.81c-0.29-0.88-0.43-1.43-0.43-1.64      c0-0.63,0.2-1.12,0.61-1.49c0.4-0.36,0.91-0.55,1.53-0.55l3.07,0.22c0.62,0,1.13-0.18,1.54-0.54c0.4-0.37,0.6-0.83,0.6-1.38      c0-1.38-0.86-2.08-2.58-2.08l-3.34,0.44c-0.66,0.11-1.34,0.18-2.03,0.22c-0.7,0.04-1.39,0.05-2.08,0.05      c-0.81,0-1.95-0.06-3.43-0.17c-1.48-0.12-2.97-0.3-4.47-0.54h-0.77c-0.55,0-1.01,0.2-1.37,0.59c-0.37,0.39-0.55,0.87-0.55,1.44      c0,0.53,0.22,1,0.66,1.39c0.44,0.39,0.93,0.58,1.48,0.58l2.47-0.22h0.33c0.73,0,1.41,0.34,2.05,1.02s1.16,1.62,1.57,2.82      l9.54,28.68c0.58,1.83,1.21,3.1,1.89,3.81c0.68,0.72,1.56,1.07,2.66,1.07c1.13,0,2.02-0.33,2.66-1.01      c0.64-0.68,1.27-1.97,1.89-3.87l9.65-28.68c0.37-1.13,0.89-2.05,1.56-2.77c0.68-0.71,1.37-1.07,2.06-1.07H996l2.47,0.22      c0.62,0,1.13-0.19,1.53-0.58c0.41-0.39,0.61-0.86,0.61-1.39C1000.61,1016.26,1000.42,1015.78,1000.06,1015.4z"/>
				<path class="st0" d="M1020.24,1051.44l-1.21,0.11l-1.59,0.17c-0.88,0-1.56-0.34-2.06-1.02c-0.49-0.67-0.74-1.6-0.74-2.77v-25.28      c0-1.2,0.26-2.14,0.77-2.82s1.21-1.02,2.09-1.02l1.53,0.22l1.21,0.11c1.53,0,2.3-0.71,2.3-2.14c0-1.39-0.86-2.08-2.58-2.08      h-0.93l-1.75,0.3c-0.85,0.12-1.7,0.2-2.55,0.24c-0.86,0.04-1.68,0.06-2.44,0.06c-0.15,0-0.82-0.02-2.01-0.06      c-1.18-0.04-2.18-0.12-2.98-0.24l-1.76-0.3h-0.93c-1.76,0-2.63,0.69-2.63,2.08c0,1.43,0.78,2.14,2.36,2.14l1.15-0.11l1.59-0.22      c1.9,0,2.85,1.28,2.85,3.84v25.28c0,1.21-0.26,2.14-0.77,2.8c-0.51,0.66-1.21,0.99-2.08,0.99l-1.59-0.17l-1.15-0.11      c-1.58,0-2.36,0.73-2.36,2.2c0,1.35,0.87,2.02,2.63,2.02h0.93l1.76-0.3c1.9-0.2,3.56-0.3,4.99-0.3c1.42,0,3.08,0.1,4.99,0.3      l1.75,0.3h0.93c1.72,0,2.58-0.69,2.58-2.08c0-0.62-0.22-1.13-0.66-1.54C1021.44,1051.64,1020.9,1051.44,1020.24,1051.44z"/>
				<path class="st0" d="M1058.57,1038.82c-0.77,0-1.37,0.22-1.81,0.65c-0.44,0.44-0.66,1.02-0.66,1.75v1.48      c0,2.84-0.98,5.11-2.93,6.82c-1.96,1.71-4.55,2.57-7.76,2.57c-4.06,0-7.26-1.54-9.6-4.61c-2.34-3.07-3.51-7.22-3.51-12.44      c0-5.12,1.12-9.17,3.35-12.15c2.23-2.98,5.24-4.47,9.05-4.47c1.49,0,2.94,0.19,4.33,0.58c1.39,0.38,2.45,0.89,3.18,1.51      c0.88,0.77,1.61,1.88,2.19,3.33c0.59,1.45,0.88,3.04,0.88,4.76v2.04c0,1.43,0.76,2.15,2.27,2.15c1.3,0,1.95-0.92,1.95-2.75      v-1.16c-0.15-1.68-0.24-2.93-0.27-3.74c-0.04-0.8-0.06-1.56-0.06-2.25l0.14-3.52l0.19-2.97c0-1.4-0.59-2.09-1.78-2.09      c-1.37,0-2.06,0.74-2.06,2.22l0.06,0.67l0.22,1.22l0.11,1.04c-0.48-0.58-0.83-1-1.04-1.26c-0.41-0.47-0.79-0.86-1.16-1.15      c-1.06-0.88-2.35-1.55-3.89-2.03c-1.54-0.47-3.22-0.71-5.05-0.71c-2.96,0-5.63,0.6-8,1.8c-2.38,1.21-4.3,2.93-5.76,5.15      c-1.24,1.9-2.24,4.15-2.99,6.74c-0.75,2.59-1.12,5.11-1.12,7.56c0,4.19,0.88,8.02,2.66,11.47c1.77,3.45,4.08,5.87,6.93,7.26      c2.56,1.27,5.41,1.91,8.56,1.91c4.68,0,8.47-1.35,11.38-4.04c2.9-2.7,4.36-6.22,4.36-10.55      C1060.93,1039.75,1060.14,1038.82,1058.57,1038.82z"/>
				<path class="st0" d="M1100.85,1042.5v-1.75c0-0.73-0.2-1.32-0.6-1.76c-0.39-0.43-0.94-0.65-1.62-0.65      c-0.61,0-1.11,0.24-1.49,0.74c-0.38,0.49-0.57,1.12-0.57,1.89v5.21c0,0.95-0.13,1.81-0.38,2.57c-0.26,0.77-0.59,1.3-0.99,1.59      c-1.06,0.63-2.76,0.94-5.1,0.94h-9.27c-1.28,0-2.13-0.23-2.55-0.69s-0.63-1.34-0.63-2.63v-8.12c0-1.07,0.05-1.75,0.14-2.04      c0.09-0.3,0.34-0.52,0.74-0.67c0.45-0.22,1.2-0.33,2.27-0.33c2.61,0,4.32,0.14,5.13,0.41c0.81,0.28,1.21,1.05,1.21,2.33      l-0.22,2.96v0.83c0,1.64,0.71,2.46,2.14,2.46c1.5,0,2.25-0.84,2.25-2.51v-1.1c-0.11-1.09-0.24-2.28-0.39-3.58      c-0.14-1.29-0.22-2.51-0.22-3.64c0-1.42,0.2-3.15,0.61-5.19l0.16-2.9c0-1.83-0.75-2.74-2.25-2.74c-1.53,0-2.3,0.82-2.3,2.46      l0.22,3.1v0.49c0,0.98-0.33,1.67-0.99,2.07c-0.66,0.4-1.77,0.6-3.34,0.6h-3.13c-0.88,0-1.43-0.12-1.67-0.35      c-0.24-0.24-0.36-0.78-0.36-1.62v-9.65c0-0.22,0.15-0.53,0.44-0.94c0.18-0.25,0.44-0.45,0.77-0.6c0.51-0.25,1.22-0.42,2.14-0.49      c0.91-0.08,2.34-0.11,4.27-0.11c4.79,0,7.96,0.47,9.49,1.42c0.81,0.44,1.21,1.83,1.21,4.17v0.6l-0.22,2.42l-0.06,0.77      c0,1.35,0.17,2.31,0.5,2.87c0.33,0.57,0.87,0.85,1.64,0.85c1.5,0,2.25-0.92,2.25-2.75l-0.05-0.83l-0.06-1.05l-0.16-3.98      l0.55-5.29c0.03-0.04,0.07-0.21,0.11-0.5c0-0.85-0.27-1.54-0.8-2.07s-1.18-0.8-1.95-0.8l-1.53,0.15      c-1.06,0.14-2.5,0.27-4.31,0.36c-1.81,0.1-4.21,0.15-7.21,0.15h-4.38c-4.79,0-8.12-0.12-9.99-0.36l-1.75-0.3h-0.93      c-1.76,0-2.63,0.69-2.63,2.06c0,1.4,0.78,2.11,2.35,2.11h1.15l1.54-0.28c1.94,0,2.91,1.28,2.91,3.84v25.28      c0,1.21-0.26,2.14-0.77,2.8c-0.51,0.66-1.21,0.99-2.08,0.99l-1.6-0.27l-1.15-0.17c-1.57,0-2.35,0.76-2.35,2.28      c0,1.4,0.82,2.1,2.46,2.1h1.1c3.22-0.34,4.94-0.51,5.15-0.51c1.39-0.13,2.6-0.2,3.62-0.2l8.61,0.22l8.83,0.49h2.69      c2.12,0,3.18-0.89,3.18-2.7l-0.11-1.57v-5.05L1100.85,1042.5z"/>
			</g>
			<g>
				<path class="st1" d="M464.53,1083.07c-5.96-8.52-14.95-12.78-26.95-12.78c-0.13,0-1.42,0.04-3.86,0.12s-4.58,0.25-6.41,0.5      l-10.78,0.5c-1.83,0-3.47-0.04-4.93-0.11c-1.46-0.08-2.83-0.23-4.12-0.45l-3.66-0.56h-1.93c-3.6,0-5.39,1.63-5.39,4.88      c0,1.56,0.45,2.8,1.37,3.71c0.91,0.92,2.12,1.37,3.61,1.37l2.03-0.3l2.65-0.31c3.12,0,4.68,2.36,4.68,7.06v43.15      c0,4.63-1.56,6.95-4.68,6.95l-2.65-0.71h-2.03c-1.42,0-2.61,0.47-3.56,1.41c-0.95,0.94-1.42,2.08-1.42,3.42      c0,3.29,1.79,4.93,5.39,4.93h1.93l3.66-0.56c3.25-0.37,6.17-0.56,8.75-0.56l8.84,0.41c0.68,0,2.34,0.12,4.99,0.35      c2.64,0.24,4.67,0.36,6.1,0.36c4.95,0,8.9-0.37,11.85-1.13c2.95-0.75,5.91-2.07,8.89-3.98c3.87-2.66,7.09-6.34,9.67-11.05      c3.45-6.47,5.18-13.63,5.18-21.47C471.75,1098.34,469.35,1089.96,464.53,1083.07z M458.43,1117.36      c-0.48,2.41-1.3,4.81-2.46,7.19c-1.98,4.29-4.69,7.4-8.13,9.34s-7.96,2.91-13.55,2.91c-3.54,0-6.48-0.34-8.79-1.02      c-0.62-0.2-1.08-0.39-1.38-0.56c-0.31-0.17-0.57-0.36-0.77-0.57c-0.48-0.47-0.77-0.98-0.87-1.52c-0.1-0.55-0.15-2.01-0.15-4.39      v-44.81c0-1.56,0.76-2.62,2.29-3.16c1.52-0.55,4.32-0.82,8.39-0.82c5.62,0,10.17,0.82,13.62,2.45c3.46,1.63,6.17,4.18,8.14,7.65      c2.91,5.04,4.37,11.37,4.37,18.99C459.14,1112.18,458.9,1114.95,458.43,1117.36z"/>
				<path class="st1" d="M575.59,1120.66v-1.42c0-4.36-1.7-6.53-5.09-6.53c-1.9,0-3.29,0.84-4.17,2.53      c-0.54,1.01-0.88,1.87-1.02,2.58c-0.13,0.71-0.2,2.08-0.2,4.1l0.1,3.64v1.22c0,3.51-0.54,5.81-1.62,6.88      c-0.41,0.41-1.17,0.82-2.29,1.22c-1.12,0.41-2.16,0.64-3.1,0.71c-0.96,0.07-1.95,0.14-3,0.2c-1.06,0.07-2.33,0.1-3.82,0.1h-2.54      l-10.17-0.3c-2.24,0-3.73-0.41-4.48-1.22c-0.74-0.81-1.11-2.36-1.11-4.65v-13.37c0-1.56,0.1-2.6,0.3-3.14      c0.2-0.54,0.64-1.02,1.32-1.42c0.82-0.27,1.43-0.41,1.83-0.41h4.07l2.65,0.11c1.01,0,1.86,0.47,2.54,1.43      c0.67,0.96,1.02,2.15,1.02,3.58v4.92c0,3.55,1.52,5.32,4.57,5.32c3.05,0,4.58-1.82,4.58-5.48l-0.31-4.16l-0.71-10.24l1.02-10.45      v-3.95c0-3.25-1.44-4.87-4.33-4.87c-3.22,0-4.82,1.62-4.82,4.88v4.88c0,0.75-0.17,1.56-0.51,2.44      c-0.34,0.88-0.69,1.47-1.06,1.78s-0.98,0.54-1.82,0.71c-0.84,0.17-1.83,0.26-2.97,0.26h-3.74c-1.48,0-2.46-0.24-2.93-0.72      c-0.47-0.48-0.7-1.43-0.7-2.86v-15.22c0.2-1.5,0.94-2.52,2.23-3.06c1.28-0.55,2.9-0.84,4.86-0.87c1.96-0.04,3.92-0.05,5.88-0.05      c4.87,0,8.4,0.13,10.59,0.4c2.2,0.28,4.01,0.82,5.43,1.63c0.87,0.41,1.45,1.07,1.72,1.98c0.27,0.92,0.41,2.46,0.41,4.63v1.63      l-0.41,4.57v0.92c0,4.88,1.71,7.32,5.13,7.32c3.36,0,5.04-2.37,5.04-7.12v-1.22l-0.41-7.62l1.02-10.17v-0.92      c0-3.46-1.8-5.19-5.39-5.19h-2.04c-0.27,0-0.81,0.05-1.62,0.16c-0.82,0.1-1.8,0.15-2.95,0.15l-18.71,0.51l-25.84-0.51      l-3.66-0.61h-1.93c-3.59,0-5.39,1.63-5.39,4.88c0,1.56,0.46,2.8,1.37,3.71c0.92,0.92,2.09,1.37,3.51,1.37l1.63-0.2l2.95-0.3      c3.25,0,4.88,2.3,4.88,6.91v42.92c0,4.54-1.59,6.81-4.78,6.81h-0.51l-2.95-0.51h-0.51c-1.42,0-2.64,0.52-3.66,1.56      c-1.01,1.04-1.52,2.29-1.52,3.74s0.44,2.6,1.32,3.42c0.89,0.83,2.08,1.25,3.58,1.25h3.26c6.6-0.88,12.18-1.32,16.74-1.32      l15.82,0.36l16.03,0.72l5.09,0.24c3.93,0,5.89-1.7,5.89-5.1l-0.2-2.65c-0.14-1.29-0.21-2.62-0.21-3.98v-5.2L575.59,1120.66z"/>
				<path class="st1" d="M679.93,1075.89c0-1.96-0.43-3.34-1.27-4.12c-0.85-0.78-2.39-1.17-4.63-1.17l-3.15,0.11      c-5.5,0.47-12.24,0.71-20.24,0.71c-15.8,0-24.92-0.19-27.36-0.56l-3.66-0.56h-1.93c-3.6,0-5.39,1.63-5.39,4.88      c0,1.56,0.46,2.8,1.37,3.71c0.92,0.92,2.12,1.37,3.61,1.37l2.03-0.17l2.65-0.33c3.12,0,4.68,2.33,4.68,6.99v42.76      c0,4.6-1.56,6.89-4.68,6.89l-2.65-0.3h-2.03c-1.42,0-2.61,0.47-3.56,1.41c-0.95,0.94-1.42,2.08-1.42,3.42      c0,3.29,1.79,4.93,5.39,4.93h1.93l3.66-0.56c2.17-0.22,3.78-0.37,4.83-0.45c1.05-0.07,2.53-0.11,4.43-0.11      c2.84,0,5.89,0.19,9.15,0.56l3.56,0.56h2.03c3.59,0,5.39-1.61,5.39-4.83c0-1.48-0.46-2.67-1.37-3.57      c-0.92-0.91-2.12-1.36-3.61-1.36h-2.04l-2.64,0.4c-3.12,0-4.68-2.3-4.68-6.91v-15.76c0.14-0.75,0.55-1.29,1.23-1.63      c0.96-0.54,2.32-0.82,4.1-0.82c3.28,0,5.51,0.33,6.71,0.97c1.19,0.65,1.79,1.85,1.79,3.61v0.51l-0.3,5.29      c0,3.46,1.56,5.18,4.68,5.18c3.11,0,4.67-1.69,4.67-5.08v-1.32l-0.4-4.27c0-0.75-0.17-2.78-0.51-6.11      c-0.07-0.67-0.1-1.55-0.1-2.64c0-0.88,0.09-2.32,0.28-4.32c0.19-2,0.43-3.95,0.73-5.85v-4.47c0-3.39-1.47-5.09-4.42-5.09      c-3.29,0-4.93,1.39-4.93,4.17l0.3,4.88v1.22c0,1.9-0.58,3.15-1.75,3.76c-1.17,0.62-3.46,0.92-6.87,0.92      c-2.07,0-3.45-0.22-4.16-0.66c-0.7-0.44-1.05-1.34-1.05-2.7v-15.66c0-0.61,0.24-1.15,0.71-1.62c0.41-0.68,0.92-1.12,1.53-1.33      c0.74-0.4,1.91-0.67,3.51-0.81c1.59-0.14,4.18-0.2,7.78-0.2c3.93,0,7.2,0.2,9.81,0.61c2.61,0.4,4.53,0.95,5.75,1.62      c0.95,0.48,1.56,1.16,1.83,2.04c0.27,0.88,0.41,2.44,0.41,4.68l-0.11,1.22l-0.4,4.67v1.02c0,4.95,1.66,7.42,4.98,7.42      c3.52,0,5.29-2.57,5.29-7.72v-0.82l-0.51-7.62l1.02-9.97V1075.89z"/>
				<path class="st1" d="M789.25,1136.4l-5.59,0.31c-1.76,0-3.32-2.1-4.68-6.31l-19.32-54.41l-1.63-3.51l-1.32-1.24      c-1.36-0.97-3.39-1.45-6.1-1.45c-3.05,0-5.29,0.55-6.72,1.65c-0.67,0.55-1.27,1.24-1.78,2.06c-0.5,0.83-1,2-1.47,3.51      l-19.63,53.7c-0.88,2.37-1.68,3.98-2.39,4.83c-0.71,0.85-1.64,1.24-2.8,1.17l-4.06-0.31c-1.02,0-1.93,0.48-2.75,1.43      c-0.81,0.95-1.22,2.06-1.22,3.35c0,1.49,0.49,2.66,1.48,3.51c0.98,0.85,2.28,1.27,3.91,1.27l3.76-0.3      c2.24-0.41,3.87-0.66,4.89-0.77c1.01-0.1,2.54-0.15,4.57-0.15c1.56,0,3.27,0.09,5.14,0.28c1.86,0.18,3.44,0.39,4.73,0.61      l4.57,0.33c3.46,0,5.19-1.67,5.19-5.03c0-2.81-1.59-4.22-4.78-4.22h-6.51c-0.61,0-1.12-0.29-1.52-0.87      c-0.41-0.58-0.61-1.14-0.61-1.69c0-0.27,0.25-1.21,0.76-2.82c0.51-1.6,0.9-2.74,1.17-3.42l1.63-5.02      c0.27-0.61,0.71-1.21,1.32-1.79s1.12-0.87,1.52-0.87h21.46c1.09,0,1.9,0.84,2.44,2.53l1.83,5.46l1.93,5.35v0.41      c0,0.74-0.27,1.38-0.81,1.92c-0.54,0.54-1.15,0.81-1.83,0.81h-5.8c-1.28,0-2.35,0.39-3.2,1.17c-0.85,0.78-1.27,1.85-1.27,3.2      c0,3.25,1.96,4.88,5.9,4.88c1.62,0,3.25-0.16,4.88-0.49c3.8-0.49,7.12-0.73,9.97-0.73c2.71,0,5.89,0.24,9.55,0.73      c1.43,0.33,2.92,0.49,4.48,0.49c1.42,0,2.56-0.46,3.41-1.37c0.84-0.92,1.27-2.12,1.27-3.61      C793.22,1137.93,791.9,1136.4,789.25,1136.4z M758.23,1111.22c-0.47,0.11-1.18,0.16-2.13,0.16h-13.73      c-1.09,0-1.63-0.41-1.63-1.25l0.54-1.99l7.63-24.14l0.48-1.29c0.07-0.29,0.24-0.72,0.51-1.3c0.07-0.07,0.14-0.22,0.21-0.43      l0.73,1.88l0.41,1.36l7.2,23.91l0.46,1.6l0.04,0.34C758.95,1110.73,758.71,1111.1,758.23,1111.22z"/>
				<path class="st1" d="M901.42,1070.29h-2.03l-3.66,0.56c-1.42,0.22-2.9,0.37-4.42,0.45c-1.53,0.07-3.01,0.11-4.43,0.11      c-1.76,0-3.47-0.06-5.13-0.17c-1.67-0.11-2.9-0.24-3.72-0.39l-3.45-0.56h-2.04c-3.52,0-5.29,1.66-5.29,4.98      c0,1.39,0.44,2.52,1.33,3.39c0.88,0.86,1.99,1.29,3.35,1.29h1.73l2.54-0.31c2.98,0,4.48,2.34,4.48,7.02v33.87      c0,3.8-0.31,6.51-0.92,8.13c-0.61,1.63-1.9,3.19-3.86,4.68c-3.12,2.17-6.99,3.26-11.6,3.26s-8.4-1.09-11.39-3.26      c-2.03-1.49-3.35-3.05-3.96-4.68c-0.61-1.62-0.92-4.33-0.92-8.13v-33.87c0-2.17,0.41-3.88,1.22-5.13      c0.82-1.26,1.93-1.89,3.36-1.89l2.44,0.31h1.83c1.36,0,2.46-0.45,3.3-1.34c0.85-0.9,1.28-2.05,1.28-3.44      c0-3.25-1.77-4.88-5.29-4.88h-1.93l-3.56,0.56c-1.43,0.22-2.89,0.37-4.38,0.45c-1.49,0.07-2.95,0.11-4.37,0.11      c-1.76,0-3.39-0.04-4.88-0.11c-1.49-0.08-2.85-0.23-4.07-0.45l-3.66-0.56h-1.93c-3.6,0-5.39,1.58-5.39,4.73      c0,1.51,0.45,2.71,1.37,3.6c0.92,0.89,2.12,1.33,3.61,1.33h2.03l2.65-0.31c3.12,0,4.68,2.34,4.68,7.02v34.17      c0,5.97,0.67,10.51,2.03,13.63c1.36,3.12,3.83,5.73,7.42,7.83c4.89,2.85,11.05,4.27,18.51,4.27c7.46,0,13.7-1.42,18.72-4.27      c3.59-2.1,6.06-4.71,7.42-7.83c1.36-3.12,2.03-7.66,2.03-13.63v-34.17c0-2.17,0.41-3.88,1.22-5.13      c0.82-1.26,1.94-1.89,3.36-1.89l2.64,0.31h2.14c1.42,0,2.61-0.46,3.56-1.38c0.95-0.92,1.42-2.07,1.42-3.45      C906.81,1071.91,905.02,1070.29,901.42,1070.29z"/>
				<path class="st1" d="M1006.88,1119c0-4.34-1.79-6.51-5.39-6.51c-3.86,0-5.79,2.2-5.79,6.59l0.51,6.68v3.04      c0,3.44-1.43,5.57-4.28,6.37c-1.83,0.55-3.67,0.83-5.54,0.87c-1.86,0.03-3.81,0.05-5.85,0.05l-4.67,0.2      c-1.83,0-3.46-0.03-4.89-0.1c-1.42-0.07-2.5-0.27-3.25-0.61c-0.88-0.27-1.46-0.82-1.73-1.63c-0.41-0.74-0.64-1.42-0.71-2.03      c-0.07-0.61-0.1-2.17-0.1-4.68v-40.58c0-2.24,0.4-3.96,1.22-5.19c0.81-1.22,1.96-1.83,3.46-1.83l2.64,0.41l2.24,0.2      c1.56,0,2.79-0.45,3.71-1.37c0.92-0.91,1.37-2.12,1.37-3.61c0-3.32-1.79-4.98-5.39-4.98h-1.93l-3.56,0.56      c-1.29,0.22-2.63,0.37-4.02,0.45c-1.39,0.07-2.79,0.11-4.22,0.11h-1.22c-0.34,0-1.62-0.04-3.86-0.11      c-2.24-0.08-4.07-0.23-5.49-0.45l-3.66-0.56h-1.94c-3.59,0-5.39,1.63-5.39,4.88c0,1.56,0.46,2.8,1.38,3.71      c0.91,0.92,2.12,1.37,3.61,1.37l2.03-0.2l2.64-0.41c3.12,0,4.68,2.34,4.68,7v42.76c0,4.59-1.56,6.89-4.68,6.89l-2.64-0.2h-2.03      c-1.43,0-2.61,0.47-3.56,1.41c-0.95,0.94-1.43,2.08-1.43,3.42c0,3.29,1.8,4.93,5.39,4.93h1.94l3.66-0.56      c3.25-0.37,7.89-0.56,13.93-0.56l22.27,0.31l13.02,0.3h0.61c2.51,0,4.23-0.44,5.18-1.32c0.95-0.88,1.43-2.47,1.43-4.78      l-0.31-10.37l0.61-8.95V1119z"/>
				<path class="st1" d="M1103.5,1075.69v-1.02c0-2.71-1.57-4.07-4.69-4.07H1098c-1.57,0.14-3.32,0.26-5.25,0.36      c-1.94,0.1-4.23,0.15-6.87,0.15l-15.69,0.31l-15.48-0.31c-1.5,0-3.69-0.08-6.57-0.25c-2.89-0.17-4.74-0.26-5.55-0.26h-1.02      c-2.99,0-4.48,1.36-4.48,4.07v1.02c0,1.97,0.08,3.93,0.25,5.9c0.17,1.96,0.36,3.73,0.56,5.29c0,0.81-0.03,1.5-0.09,2.08      c-0.06,0.58-0.21,1.98-0.45,4.22l-0.27,4.07c0,3.73,1.76,5.59,5.29,5.59c3.45,0,5.18-2.95,5.18-8.85c0-3.72,0.14-6.5,0.41-8.33      c0.27-1.84,1.02-3.34,2.24-4.53s3.05-1.78,5.49-1.78c4.13,0,6.74,1.05,7.83,3.15c0.47,0.74,0.74,1.32,0.81,1.72      c0.07,0.41,0.1,1.39,0.1,2.95v42.33c0,4.6-1.52,6.9-4.57,6.9l-2.75-0.3h-2.13c-1.43,0-2.58,0.47-3.46,1.41      c-0.88,0.94-1.32,2.08-1.32,3.42c0,3.29,1.73,4.93,5.18,4.93h2.04l3.66-0.56c3.25-0.37,6.3-0.56,9.15-0.56      c0.81,0,1.86,0.02,3.15,0.06c1.29,0.03,3.32,0.2,6.11,0.5l3.66,0.56h1.93c3.59,0,5.39-1.61,5.39-4.83      c0-1.54-0.44-2.75-1.32-3.62c-0.89-0.88-2.07-1.31-3.56-1.31h-2.14l-2.64,0.4c-3.05,0-4.58-2.3-4.58-6.91v-42.41      c0-1.56,0.03-2.54,0.1-2.95c0.07-0.41,0.27-0.98,0.61-1.73c0.21-0.2,0.49-0.52,0.87-0.96c0.37-0.44,0.76-0.77,1.17-0.97      c1.35-0.81,3.28-1.22,5.79-1.22c3.53,0,5.87,1.29,7.02,3.86c0.75,1.29,1.12,3.12,1.12,5.5v5.28c0,5.9,1.69,8.85,5.08,8.85      c3.66,0,5.5-1.9,5.5-5.69v-3.97c-0.28-1.15-0.45-2.22-0.51-3.2c-0.07-0.99-0.1-2.02-0.1-3.1c0-0.89,0.05-2.21,0.15-3.97      S1103.29,1078.74,1103.5,1075.69z"/>
			</g>
			<g>
				<path class="st0" d="M590.99,1170.68h-0.57l-1.09,0.19c-0.52,0.07-1.04,0.12-1.57,0.15c-0.53,0.02-1.04,0.03-1.51,0.03      c-0.09,0-0.51-0.01-1.24-0.03c-0.73-0.03-1.35-0.08-1.85-0.15l-1.08-0.19h-0.58c-1.08,0-1.63,0.43-1.63,1.29      c0,0.88,0.49,1.32,1.46,1.32l0.71-0.07l0.99-0.13c1.17,0,1.76,0.79,1.76,2.37v12.31c0,1.35-0.12,2.33-0.37,2.93      c-0.25,0.6-0.75,1.16-1.49,1.68c-1.2,0.81-2.58,1.22-4.14,1.22c-1.63,0-3.01-0.41-4.14-1.22c-0.76-0.52-1.27-1.08-1.52-1.68      c-0.25-0.6-0.37-1.58-0.37-2.93v-12.31c0-0.74,0.15-1.33,0.47-1.74c0.32-0.42,0.75-0.63,1.29-0.63l0.95,0.13l0.74,0.07      c0.95,0,1.43-0.44,1.43-1.32c0-0.86-0.53-1.29-1.6-1.29h-0.57l-1.09,0.19c-0.52,0.07-1.04,0.12-1.57,0.15      c-0.53,0.02-1.04,0.03-1.51,0.03c-0.09,0-0.51-0.01-1.24-0.03c-0.73-0.03-1.35-0.08-1.85-0.15l-1.08-0.19h-0.58      c-1.08,0-1.62,0.43-1.62,1.29c0,0.88,0.48,1.32,1.45,1.32l0.71-0.07l0.99-0.13c1.17,0,1.76,0.79,1.76,2.37v12.34      c0,2.03,0.23,3.55,0.68,4.56c0.45,1.01,1.27,1.84,2.47,2.49c0.77,0.41,1.67,0.73,2.7,0.98s2.06,0.38,3.1,0.38      c2.15,0,4.06-0.45,5.73-1.36c1.22-0.65,2.06-1.49,2.51-2.51c0.45-1.01,0.68-2.53,0.68-4.54v-12.34c0-0.74,0.15-1.33,0.47-1.74      c0.32-0.42,0.75-0.63,1.29-0.63l0.95,0.13l0.74,0.07c0.95,0,1.43-0.44,1.43-1.32C592.59,1171.1,592.06,1170.68,590.99,1170.68z"/>
				<path class="st0" d="M612.59,1183.43c-0.75-0.55-1.47-0.94-2.16-1.19c-0.69-0.25-1.75-0.48-3.2-0.69      c-1.45-0.22-2.44-0.38-2.98-0.5c-0.54-0.11-1.11-0.29-1.7-0.54c-0.9-0.38-1.55-0.86-1.95-1.42c-0.39-0.57-0.59-1.17-0.59-1.8      c0-1.31,0.48-2.38,1.44-3.2c0.96-0.83,2.18-1.24,3.65-1.24c1.13,0,2.07,0.14,2.84,0.41c0.57,0.2,1.17,0.6,1.8,1.21      c0.93,0.92,1.39,1.9,1.39,2.94l-0.07,1.38l-0.03,0.54c0,1.26,0.44,1.89,1.32,1.89c0.44,0,0.8-0.17,1.06-0.51      c0.27-0.33,0.4-0.76,0.4-1.28l-0.15-2.48l-0.02-2.51l0.17-2.06c0-1.16-0.42-1.73-1.26-1.73c-0.72,0-1.08,0.39-1.08,1.18v1.12      c-0.66-0.68-1.19-1.16-1.61-1.44c-0.42-0.28-0.91-0.52-1.48-0.73c-0.99-0.31-2-0.47-3.01-0.47c-2.53,0-4.57,0.66-6.11,1.97      c-1.53,1.31-2.3,3.04-2.3,5.17c0,2.38,1.02,4.07,3.05,5.06c0.81,0.43,1.52,0.73,2.12,0.89c0.6,0.16,1.94,0.42,4.03,0.78      c2.09,0.36,3.48,0.78,4.16,1.26c1.06,0.63,1.59,1.71,1.59,3.23c0,1.56-0.54,2.8-1.63,3.7c-1.08,0.91-2.55,1.36-4.4,1.36      c-1.27,0-2.42-0.22-3.45-0.68c-1.02-0.46-1.8-1.09-2.32-1.91c-0.34-0.5-0.57-1-0.69-1.51c-0.13-0.5-0.19-1.21-0.19-2.15v-1.06      c0-0.31-0.01-0.58-0.03-0.78c-0.03-0.21-0.06-0.36-0.1-0.48c-0.23-0.48-0.67-0.72-1.33-0.72c-0.97,0-1.45,0.47-1.45,1.39v0.14      l0.3,2.88v3.05c-0.09,0.79-0.14,1.3-0.14,1.53v0.88c0,1.31,0.45,1.97,1.34,1.97c0.83,0,1.24-0.42,1.24-1.26v-1.49      c1.29,1.14,2.49,1.89,3.61,2.23c1.12,0.34,2.24,0.52,3.37,0.52c2.58,0,4.73-0.75,6.45-2.24c1.71-1.49,2.57-3.36,2.57-5.6      C615.06,1186.36,614.24,1184.69,612.59,1183.43z"/>
				<path class="st0" d="M652.37,1174.94c-0.33-0.76-0.85-1.49-1.58-2.16c-0.83-0.81-1.75-1.37-2.74-1.68      c-1-0.3-2.42-0.45-4.28-0.45h-2.2l-4.58,0.43c-0.11,0.03-0.31,0.04-0.61,0.04c-0.74,0-1.49-0.06-2.23-0.2      c-0.75-0.13-1.25-0.21-1.49-0.24c-0.25-0.02-0.47-0.03-0.65-0.03c-1.06,0-1.59,0.43-1.59,1.29c0,0.88,0.48,1.32,1.46,1.32h0.71      l0.98-0.24c1.18,0,1.76,0.79,1.76,2.38v15.67c0,0.75-0.15,1.33-0.47,1.74c-0.32,0.41-0.75,0.61-1.29,0.61l-0.98-0.1l-0.71-0.07      c-0.98,0-1.46,0.45-1.46,1.36c0,0.84,0.54,1.26,1.63,1.26h0.57l1.09-0.19c0.76-0.07,1.34-0.12,1.73-0.15      c0.38-0.02,0.91-0.03,1.59-0.03c0.27,0,0.65,0,1.13,0.01c0.49,0.02,1.22,0.07,2.19,0.17l1.09,0.19h0.61      c1.03,0,1.56-0.43,1.56-1.29c0-0.41-0.14-0.73-0.39-0.97c-0.26-0.23-0.6-0.35-1-0.35l-0.72,0.07l-1.35,0.1      c-1.27,0-1.9-0.78-1.9-2.34v-5.56c0-0.2,0.12-0.34,0.37-0.41s0.71-0.1,1.39-0.1h2.48c3.52,0,6.13-0.6,7.83-1.79      c1.69-1.2,2.54-3.06,2.54-5.58C652.86,1176.6,652.7,1175.71,652.37,1174.94z M648,1181.5c-1.15,0.79-2.95,1.18-5.41,1.18      c-0.68,0-1.43-0.03-2.24-0.1c-0.81-0.07-1.37-0.13-1.66-0.17c-0.18-0.07-0.3-0.18-0.36-0.33c-0.05-0.14-0.08-0.5-0.08-1.07      v-5.87c0-0.66,0.08-1.11,0.24-1.34c0.15-0.22,0.48-0.38,0.98-0.47l0.54-0.07c0.5-0.07,1.04-0.13,1.63-0.17      c0.59-0.05,1.17-0.07,1.76-0.07c1.36,0,2.45,0.13,3.27,0.38c0.83,0.25,1.49,0.64,1.99,1.19c0.7,0.75,1.05,1.83,1.05,3.24      C649.71,1179.49,649.14,1180.72,648,1181.5z"/>
				<path class="st0" d="M681.42,1193.65c-0.24-0.22-0.54-0.32-0.9-0.32l-2.1,0.17c-0.61,0-1.2-0.76-1.76-2.28l-6.88-18.81      c-0.1-0.32-0.23-0.62-0.41-0.92c-0.18-0.29-0.35-0.48-0.51-0.57c-0.25-0.23-0.6-0.34-1.05-0.34c-1.04,0-1.81,0.67-2.31,2      l-6.95,18.78c-0.31,0.86-0.59,1.45-0.84,1.76c-0.25,0.32-0.58,0.48-0.99,0.48l-1.45-0.1c-0.3,0-0.56,0.12-0.8,0.37      c-0.24,0.26-0.36,0.55-0.36,0.88c0,0.79,0.52,1.19,1.56,1.19l1.26-0.07c1.2-0.27,2.25-0.41,3.15-0.41      c0.63,0,1.65,0.14,3.05,0.41h1.73c0.99,0,1.49-0.45,1.49-1.34c0-0.8-0.47-1.2-1.42-1.2h-0.24c-0.72,0.13-1.38,0.2-1.97,0.2      c-0.9,0-1.35-0.32-1.35-0.96v-0.14l0.81-2.5l0.71-2.05c0.07-0.23,0.21-0.43,0.43-0.6c0.21-0.17,0.41-0.27,0.59-0.29h7.49      c0.34,0,0.61,0.27,0.82,0.83l0.81,2.39l0.78,2.11l0.03,0.21c0,0.18-0.05,0.35-0.17,0.51c-0.22,0.31-0.47,0.46-0.74,0.46      l-2.14-0.17h-0.13c-1.02,0-1.53,0.39-1.53,1.18c0,0.91,0.51,1.36,1.53,1.36c0.06,0,0.37-0.02,0.91-0.07      c0.54-0.04,0.92-0.09,1.12-0.14c1.31-0.11,2.35-0.16,3.12-0.16c0.84,0,1.82,0.06,2.95,0.18l1.76,0.19      c0.39,0,0.69-0.13,0.92-0.38c0.22-0.25,0.34-0.57,0.34-0.96C681.78,1194.16,681.66,1193.86,681.42,1193.65z M671,1184.23      c0,0.28-0.3,0.42-0.89,0.42h-5.25c-0.38,0-0.58-0.14-0.58-0.43l0.19-0.75l2.89-8.69l0.15-0.4l0.14-0.31      c0.02,0.02,0.05,0.06,0.09,0.1c0.03,0.05,0.06,0.14,0.08,0.27l0.1,0.51l2.8,8.44l0.28,0.65V1184.23z"/>
				<path class="st0" d="M704.11,1172.14c0-0.9-0.45-1.36-1.36-1.36h-0.57c-0.32,0.05-0.74,0.09-1.26,0.12      c-0.52,0.02-1.24,0.04-2.14,0.04l-5.31,0.11l-5.34-0.11c-1.04,0-1.8-0.02-2.28-0.04c-0.47-0.03-0.85-0.07-1.12-0.12h-0.58      c-0.9,0-1.36,0.46-1.36,1.36v0.24l0.27,3.52c0,0.45-0.01,0.93-0.04,1.43c-0.03,0.49-0.08,0.94-0.14,1.35l-0.09,1.25      c0,1.09,0.48,1.63,1.44,1.63c0.56,0,0.97-0.14,1.23-0.42c0.25-0.28,0.38-0.75,0.38-1.41l-0.13-2.13l-0.1-2.14      c0-1.63,0.96-2.44,2.89-2.44c1.21,0,2.06,0.19,2.56,0.58c0.25,0.18,0.46,0.4,0.63,0.67c0.17,0.28,0.25,0.54,0.25,0.78v16.04      c0,0.74-0.15,1.32-0.47,1.73c-0.32,0.4-0.75,0.61-1.29,0.61l-0.98-0.1l-0.68-0.07c-0.97,0-1.46,0.45-1.46,1.35      c0,0.84,0.55,1.26,1.63,1.26h0.54l1.12-0.19c1.06-0.1,1.75-0.15,2.07-0.17c0.32-0.01,0.67-0.01,1.05-0.01      c0.25,0,0.58,0,0.98,0.01c0.41,0.02,1.11,0.07,2.11,0.17l1.11,0.19h0.55c1.08,0,1.62-0.43,1.62-1.29c0-0.38-0.13-0.7-0.4-0.95      s-0.63-0.37-1.05-0.37l-0.68,0.07l-1.02,0.1c-1.15,0-1.73-0.78-1.73-2.34v-16.04c0-1.35,1.12-2.03,3.34-2.03c2,0,3,0.81,3,2.44      l-0.1,2.14l-0.14,2.13c0,1.22,0.54,1.83,1.61,1.83c0.96,0,1.44-0.54,1.44-1.63l-0.09-1.25c-0.1-0.61-0.15-1.12-0.16-1.52      c-0.01-0.41-0.02-0.83-0.02-1.26l0.27-3.52V1172.14z"/>
				<path class="st0" d="M711.37,1191.97c-0.45-0.45-1.02-0.68-1.7-0.68c-0.65,0-1.2,0.23-1.66,0.68c-0.45,0.45-0.67,1.01-0.67,1.66      c0,0.66,0.23,1.21,0.71,1.66c0.47,0.45,1.01,0.68,1.62,0.68c0.68,0,1.25-0.23,1.7-0.68c0.45-0.45,0.68-1,0.68-1.66      C712.05,1192.98,711.82,1192.42,711.37,1191.97z"/>
				<path class="st0" d="M750.18,1175.23c-1.94-3.03-5.11-4.55-9.52-4.55c-0.68,0-1.3,0.01-1.85,0.04      c-0.55,0.02-1.16,0.07-1.81,0.16l-3.39,0.17c-0.05,0-0.42-0.01-1.12-0.03c-0.7-0.03-1.3-0.08-1.8-0.15l-1.08-0.19h-0.58      c-1.08,0-1.63,0.43-1.63,1.29c0,0.88,0.49,1.32,1.46,1.32h0.71l0.99-0.2c1.17,0,1.76,0.79,1.76,2.37v15.63      c0,0.74-0.16,1.32-0.48,1.73c-0.31,0.4-0.74,0.61-1.28,0.61h-0.99l-0.71-0.17c-0.97,0-1.46,0.45-1.46,1.35      c0,0.84,0.55,1.26,1.63,1.26h0.58l1.08-0.19c1.18-0.12,2.16-0.18,2.95-0.18l3.22,0.18c1.31,0.13,2.43,0.19,3.36,0.19      c2.75,0,4.93-0.41,6.54-1.24c1.6-0.83,2.95-2.25,4.03-4.28c1.09-2.02,1.63-4.34,1.63-6.94      C752.42,1180.2,751.68,1177.47,750.18,1175.23z M748.08,1188.95c-0.34,0.7-0.7,1.31-1.1,1.83c-0.39,0.52-0.8,0.93-1.2,1.22      c-0.64,0.45-1.47,0.8-2.51,1.05c-1.04,0.25-2.17,0.38-3.39,0.38c-1.27,0-2.43-0.14-3.49-0.41c-0.32-0.07-0.58-0.16-0.78-0.27      c-0.23-0.2-0.35-0.51-0.36-0.9c-0.01-0.4-0.02-0.82-0.02-1.27v-14.1l-0.1-1.9c0-0.52,0.27-0.85,0.82-0.98      c0.67-0.21,1.86-0.31,3.56-0.31c2.14,0,3.82,0.26,5.03,0.78c1.21,0.52,2.21,1.41,3,2.65c0.56,0.91,0.98,1.93,1.25,3.07      c0.28,1.15,0.41,2.38,0.41,3.69C749.2,1185.45,748.83,1187.26,748.08,1188.95z"/>
				<path class="st0" d="M774.34,1173.2c-1.73-2-4.18-2.99-7.34-2.99c-3.03,0-5.4,0.89-7.12,2.67c-0.79,0.82-1.41,1.8-1.86,2.94      c-0.46,1.14-0.68,2.28-0.68,3.44c0,2.46,0.83,4.45,2.51,5.96c1.67,1.52,3.83,2.27,6.47,2.27c1.11,0,2.15-0.13,3.14-0.4      c0.98-0.27,1.83-0.67,2.56-1.19c0.42-0.34,0.77-0.66,1.03-0.98s0.56-0.79,0.9-1.43c-0.07,0.64-0.15,1.2-0.24,1.71      s-0.19,0.96-0.31,1.37c-0.31,1.24-0.63,2.25-0.96,3.02c-0.33,0.78-0.7,1.43-1.1,1.95c-0.57,0.67-1.31,1.21-2.24,1.62      c-0.93,0.4-1.88,0.61-2.85,0.61c-1.35,0-2.57-0.38-3.66-1.15l-0.44-0.47l-0.14-0.27l0.24-0.1c0.18-0.09,0.34-0.28,0.48-0.56      c0.13-0.28,0.2-0.56,0.2-0.86c0-1.23-0.64-1.85-1.93-1.85c-0.7,0-1.26,0.23-1.66,0.68c-0.41,0.45-0.61,1.04-0.61,1.79      c0,1.53,0.7,2.78,2.12,3.76c1.41,0.98,3.21,1.47,5.4,1.47c1.81,0,3.49-0.45,5.04-1.34c1.54-0.89,2.76-2.12,3.64-3.67      c1.33-2.49,2-5.68,2-9.58C776.93,1178,776.07,1175.2,774.34,1173.2z M771.54,1183.27c-1.21,1.12-2.78,1.67-4.73,1.67      c-1.79,0-3.27-0.52-4.45-1.57c-1.18-1.04-1.77-2.4-1.77-4.09v-0.27c0-1.89,0.58-3.4,1.75-4.55c1.16-1.15,2.67-1.72,4.52-1.72      c2.01,0,3.6,0.54,4.75,1.64c1.15,1.09,1.73,2.57,1.73,4.46C773.34,1180.69,772.74,1182.17,771.54,1183.27z"/>
				<path class="st0" d="M800.08,1193.22h-0.67l-1.02,0.21c-1.24,0-1.87-0.79-1.87-2.36v-2.9h4.11c0.27-0.04,0.51-0.23,0.71-0.57      c0.13-0.24,0.2-0.5,0.2-0.77c0-0.35-0.09-0.66-0.29-0.92c-0.19-0.25-0.42-0.38-0.69-0.38h-4.04v-13.46      c0-0.52-0.19-0.94-0.57-1.25c-0.39-0.32-0.88-0.48-1.49-0.48c-0.59,0-1.08,0.12-1.46,0.34c-0.39,0.23-0.79,0.62-1.22,1.19      l-10.27,13.39c-0.45,0.58-0.68,1.08-0.68,1.51c0,0.42,0.19,0.76,0.56,1.02c0.37,0.25,0.85,0.38,1.44,0.38h10.78v2.9      c0,0.75-0.16,1.33-0.48,1.74c-0.31,0.41-0.74,0.62-1.28,0.62l-0.99-0.21h-0.71c-0.97,0-1.46,0.46-1.46,1.38      c0,0.84,0.54,1.27,1.63,1.27h0.57l1.08-0.21c0.61-0.04,1.18-0.08,1.71-0.1s1.01-0.03,1.44-0.03c0.74,0,1.32,0.01,1.72,0.03      c0.41,0.02,0.88,0.06,1.42,0.1l1.12,0.21h0.57c1.06,0,1.59-0.44,1.59-1.31c0-0.39-0.13-0.71-0.4-0.96      C800.86,1193.34,800.51,1193.22,800.08,1193.22z M793.61,1174.2v11.33h-8.37l-0.55-0.06l0.22-0.3l8.49-11.07l0.3-0.34      L793.61,1174.2z"/>
				<path class="st0" d="M825,1184.26c-0.97-1.32-2.08-2.1-3.32-2.35l-0.34-0.1c0-0.02,0.03-0.06,0.08-0.12      c0.06-0.06,0.11-0.1,0.16-0.12l0.67-0.3c0.84-0.41,1.48-1,1.94-1.76c0.45-0.77,0.67-1.66,0.67-2.68c0-1.94-0.75-3.51-2.25-4.72      s-3.49-1.81-5.95-1.81c-2.42,0-4.39,0.6-5.92,1.81c-1.52,1.21-2.28,2.78-2.28,4.72c0,1.47,0.44,2.62,1.32,3.46      c0.2,0.2,0.64,0.53,1.32,0.98l0.71,0.37l0.24,0.17l-0.31,0.13c-0.58,0.16-1.04,0.33-1.37,0.5c-0.33,0.16-0.68,0.42-1.07,0.76      c-0.74,0.65-1.33,1.45-1.76,2.4c-0.43,0.95-0.64,1.91-0.64,2.88c0,2.21,0.92,4.05,2.78,5.52c1.85,1.46,4.18,2.2,6.98,2.2      c2.83,0,5.16-0.74,7.02-2.2c1.85-1.47,2.78-3.31,2.78-5.52C826.46,1187,825.97,1185.58,825,1184.26z M811.61,1176.7v-0.47      c0.13-1.04,0.66-1.86,1.56-2.47c0.91-0.61,2.07-0.91,3.47-0.91c1.57,0,2.81,0.35,3.74,1.05c0.93,0.69,1.4,1.64,1.4,2.83      c0,1.17-0.44,2.06-1.32,2.67c-0.88,0.61-2.15,0.91-3.8,0.91C813.29,1180.3,811.61,1179.09,811.61,1176.7z M821.3,1192.1      c-1.17,0.99-2.72,1.49-4.64,1.49c-1.88,0-3.41-0.5-4.61-1.49c-1.2-0.99-1.8-2.26-1.8-3.82c0-1.6,0.59-2.89,1.77-3.88      c1.17-1,2.72-1.49,4.64-1.49c1.94,0,3.5,0.49,4.66,1.47s1.75,2.27,1.75,3.87C823.07,1189.83,822.48,1191.11,821.3,1192.1z"/>
				<path class="st0" d="M836.32,1191.9c-0.52-0.68-1.22-1.02-2.1-1.02c-0.7,0-1.31,0.22-1.83,0.67c-0.52,0.44-0.83,1-0.92,1.67      v0.21c0,0.65,0.23,1.21,0.68,1.66c0.45,0.45,1,0.68,1.63,0.68h0.44c0.47,0,0.71,0.17,0.71,0.5c0,0.14-0.17,0.68-0.51,1.62      c-0.2,0.47-0.36,0.81-0.47,1.01s-0.24,0.38-0.37,0.54l-0.48,0.51c-0.38,0.45-0.57,0.79-0.57,1.04s0.1,0.44,0.3,0.59      c0.2,0.15,0.37,0.22,0.51,0.22c0.16,0,0.3-0.04,0.44-0.13c0.13-0.09,0.33-0.29,0.58-0.58l0.95-1.25      c1.19-1.6,1.79-3.31,1.79-5.14C837.1,1193.5,836.84,1192.56,836.32,1191.9z"/>
				<path class="st0" d="M859.14,1181.22c-1.68-1.53-3.85-2.3-6.51-2.3c-2.19,0-4.08,0.55-5.66,1.66c-0.68,0.45-1.34,1.24-1.97,2.37      c0.09-0.72,0.17-1.26,0.24-1.61c0.06-0.35,0.18-0.84,0.34-1.47c0.31-1.27,0.63-2.28,0.94-3.04c0.32-0.75,0.69-1.4,1.12-1.95      c0.59-0.7,1.34-1.25,2.24-1.66c0.9-0.4,1.84-0.61,2.82-0.61c1.4,0,2.62,0.4,3.66,1.19c0.2,0.16,0.35,0.32,0.44,0.47l0.17,0.31      l-0.28,0.07c-0.2,0.07-0.36,0.24-0.47,0.52c-0.11,0.29-0.17,0.6-0.17,0.93c0,1.23,0.63,1.84,1.9,1.84c0.7,0,1.25-0.23,1.66-0.68      c0.41-0.45,0.61-1.05,0.61-1.8c0-1.54-0.71-2.8-2.12-3.78s-3.21-1.47-5.4-1.47c-1.81,0-3.49,0.45-5.04,1.35      c-1.55,0.9-2.75,2.13-3.61,3.69c-1.36,2.39-2.03,5.56-2.03,9.51c0,3.66,0.87,6.48,2.61,8.47c1.74,1.98,4.19,2.98,7.35,2.98      c3.01,0,5.37-0.89,7.09-2.68c0.79-0.81,1.42-1.78,1.88-2.91c0.46-1.12,0.69-2.27,0.69-3.45      C861.64,1184.74,860.81,1182.75,859.14,1181.22z M856.59,1191.94c-1.17,1.15-2.67,1.72-4.51,1.72c-2.03,0-3.61-0.54-4.74-1.62      c-1.13-1.08-1.7-2.59-1.7-4.53v-0.3c0-1.71,0.61-3.08,1.82-4.11c1.21-1.02,2.77-1.54,4.69-1.54c1.88,0,3.38,0.54,4.51,1.63      c1.13,1.08,1.7,2.52,1.7,4.32C858.36,1189.31,857.77,1190.78,856.59,1191.94z"/>
				<path class="st0" d="M883.68,1181.25c-1.63-1.46-3.84-2.2-6.64-2.2c-1.99,0-3.6,0.4-4.82,1.19l-0.88,0.51l-0.51,0.34l0.09-0.65      l0.35-5.66c0-0.31,0.07-0.53,0.22-0.66c0.14-0.12,0.44-0.18,0.89-0.18l7.53-0.11c1.18,0,1.81,0.55,1.9,1.63l0.14,1.12      c0.07,0.68,0.47,1.02,1.22,1.02c0.72,0,1.08-0.43,1.08-1.29l-0.03-0.44l-0.24-1.43c-0.04-0.29-0.08-0.56-0.1-0.79      c-0.02-0.24-0.03-0.55-0.03-0.93c0-0.68-0.11-1.13-0.32-1.34c-0.22-0.22-0.65-0.33-1.31-0.33h-12.07      c-0.63,0-1.05,0.09-1.27,0.26c-0.21,0.17-0.34,0.51-0.39,1.03l-0.64,10.61l-0.04,0.31c0,1.15,0.53,1.73,1.6,1.73      c0.27,0,0.48-0.06,0.64-0.16c0.16-0.1,0.43-0.32,0.81-0.67c1.63-1.71,3.61-2.56,5.94-2.56c1.87,0,3.36,0.52,4.47,1.56      c1.11,1.04,1.66,2.44,1.66,4.18c0,1.95-0.63,3.49-1.9,4.62c-1.26,1.14-2.96,1.7-5.08,1.7c-1.61,0-3.01-0.29-4.2-0.88      c-1.2-0.58-1.8-1.28-1.8-2.1c0-0.25,0.06-0.39,0.2-0.44l0.68-0.07c0.26-0.04,0.48-0.21,0.67-0.51c0.19-0.29,0.28-0.62,0.28-0.98      c0-0.63-0.2-1.13-0.59-1.51c-0.4-0.37-0.95-0.56-1.65-0.56c-0.81,0-1.49,0.3-2.03,0.88c-0.54,0.59-0.81,1.33-0.81,2.23      c0,1.89,0.85,3.45,2.57,4.66c1.72,1.22,3.89,1.83,6.51,1.83c3.05,0,5.54-0.84,7.46-2.51c1.92-1.67,2.88-3.82,2.88-6.46      C886.12,1184.72,885.31,1182.72,883.68,1181.25z"/>
				<path class="st0" d="M909.54,1193.22h-0.67l-1.02,0.21c-1.24,0-1.87-0.79-1.87-2.36v-2.9h4.11c0.27-0.04,0.51-0.23,0.71-0.57      c0.13-0.24,0.2-0.5,0.2-0.77c0-0.35-0.09-0.66-0.29-0.92c-0.19-0.25-0.42-0.38-0.68-0.38h-4.05v-13.46      c0-0.52-0.19-0.94-0.57-1.25c-0.39-0.32-0.88-0.48-1.49-0.48c-0.59,0-1.08,0.12-1.46,0.34c-0.39,0.23-0.79,0.62-1.22,1.19      l-10.27,13.39c-0.45,0.58-0.68,1.08-0.68,1.51c0,0.42,0.19,0.76,0.56,1.02c0.37,0.25,0.86,0.38,1.44,0.38h10.78v2.9      c0,0.75-0.16,1.33-0.48,1.74c-0.31,0.41-0.74,0.62-1.28,0.62l-0.99-0.21h-0.71c-0.97,0-1.46,0.46-1.46,1.38      c0,0.84,0.54,1.27,1.63,1.27h0.57l1.08-0.21c0.61-0.04,1.18-0.08,1.71-0.1c0.53-0.02,1.01-0.03,1.44-0.03      c0.74,0,1.32,0.01,1.72,0.03c0.41,0.02,0.88,0.06,1.42,0.1l1.12,0.21h0.57c1.06,0,1.59-0.44,1.59-1.31      c0-0.39-0.13-0.71-0.41-0.96C910.32,1193.34,909.97,1193.22,909.54,1193.22z M903.07,1174.2v11.33h-8.37l-0.55-0.06l0.22-0.3      l8.49-11.07l0.3-0.34L903.07,1174.2z"/>
			</g>
			<g>
				<path class="st2" d="M691.57,720.24l0.07,13.33l10.4-8l0.78,3.77h3.58c4.81,0,8.71-3.9,8.71-8.71v-2.6H691.7L691.57,720.24z"/>
				<g>
					<g>
						<g>
							<path class="st2" d="M617.28,420.18v2.99h-21.67c-6.24,0-11.33-5.09-11.33-11.33V302.76l8.19-2.87l0.75-0.26h5.26l0.41,1.18         l-2.91,1.02l-8.71,3.05v106.97c0,0.8,0.12,1.58,0.33,2.32v0.01c0.4,1.38,1.16,2.61,2.16,3.6v0.01         c1.51,1.48,3.57,2.4,5.85,2.4H617.28z"/>
						</g>
					</g>
					<g>
						<g>
							<path class="st2" d="M624.14,600.46h-2.99V467.79c-3.39-0.69-5.95-3.7-5.95-7.29v-63.46H594.4l-4.52,20.77l-2.92-0.64         l4.78-21.95c0.15-0.69,0.76-1.18,1.46-1.18h23.51c0.83,0,1.5,0.67,1.5,1.5v64.96c0,2.46,2,4.45,4.45,4.45         c0.83,0,1.5,0.67,1.5,1.5V600.46z"/>
						</g>
					</g>
					<g>
						<g>
							<path class="st2" d="M687.02,600.59h-2.99V466.12c0-0.83,0.67-1.5,1.5-1.5c2.62,0,4.75-2.13,4.75-4.75v-16.84         c0-0.83,0.67-1.5,1.5-1.5h33.74l-0.03-6.79l2.99-0.01l0.03,8.29c0,0.4-0.16,0.78-0.44,1.06c-0.28,0.28-0.66,0.44-1.06,0.44         h-33.75v15.35c0,3.75-2.69,6.89-6.24,7.59V600.59z"/>
						</g>
					</g>
					<g>
						<g>
							<path class="st2" d="M618.19,395.62l-2.99-0.17c0.84-14.69-1.71-20.54-3.99-22.86c-1.32-1.34-2.93-1.95-4.95-1.87         c-5.78,0.24-8.97,14.99-9.62,24.23l-2.98-0.21c0.19-2.72,2.16-26.59,12.48-27.01c2.86-0.12,5.29,0.81,7.21,2.76         C617.34,374.56,618.92,382.77,618.19,395.62z"/>
						</g>
					</g>
					<g>
						<g>
							<path class="st2" d="M668.23,422.36h-2.99v-21.52h-21.78v20.16h-2.99v-21.65c0-0.83,0.67-1.5,1.5-1.5h24.77         c0.83,0,1.5,0.67,1.5,1.5V422.36z"/>
						</g>
					</g>
					<g>
						<g>
							<path class="st2" d="M671.51,420.28h-33.84c-0.4,0-0.78,0.16-1.06,0.44c-0.51,0.51-0.61,0.61-0.52,6.03         c0.04,2.28,1.6,4.21,3.69,4.81c0.23,1.52,0.86,2.92,1.8,4.07c1.56,1.98,4,3.25,6.72,3.25h12.04c2.75,0,5.21-1.27,6.81-3.25         c0.99-1.22,1.65-2.7,1.88-4.32c2.28-0.57,3.98-2.64,3.98-5.09v-4.44C673.01,420.95,672.34,420.28,671.51,420.28z          M670.02,426.22c0,1.24-1.02,2.26-2.26,2.26c-0.91,0-1.64,0.73-1.64,1.64c0,2.58-1.71,4.78-4.06,5.51         c-0.55,0.17-1.12,0.26-1.72,0.26H648.3c-0.59,0-1.16-0.09-1.7-0.26c-2.27-0.72-3.93-2.85-3.93-5.37         c0-0.82-0.66-1.49-1.49-1.49c-1.14,0-2.08-0.93-2.1-2.07c-0.01-0.42-0.01-0.79-0.02-1.13c-0.01-1.05-0.01-1.79,0-2.3h30.96         V426.22z"/>
						</g>
					</g>
					<g>
						<g>
							<rect x="638.5" y="422.57" class="st2" width="31.94" height="2.99"/>
						</g>
					</g>
					<g>
						<g>
							<rect x="695.67" y="385.1" class="st2" width="2.99" height="50.72"/>
						</g>
					</g>
					<g>
						<g>
							<path class="st2" d="M697.21,312.35c-3.14,0-5.69,2.56-5.69,5.7c0,3.14,2.55,5.69,5.69,5.69s5.7-2.55,5.7-5.69         C702.91,314.91,700.35,312.35,697.21,312.35z M697.21,321.75c-2.04,0-3.7-1.66-3.7-3.7c0-2.04,1.66-3.7,3.7-3.7         s3.7,1.66,3.7,3.7C700.91,320.09,699.25,321.75,697.21,321.75z"/>
						</g>
					</g>
					<g>
						<g>
							<path class="st2" d="M728.82,306.46c-6.61,0-11.98,5.37-11.98,11.98c0,6.6,5.37,11.98,11.98,11.98         c6.6,0,11.98-5.38,11.98-11.98C740.8,311.83,735.42,306.46,728.82,306.46z M728.82,327.43c-4.96,0-8.99-4.03-8.99-8.99         c0-4.96,4.03-8.99,8.99-8.99c4.95,0,8.99,4.03,8.99,8.99C737.81,323.4,733.77,327.43,728.82,327.43z"/>
						</g>
					</g>
					<g>
						<g>
							<path class="st2" d="M702.9,362.28c-7.13,0-12.94,5.81-12.94,12.94c0,4.46,2.27,8.4,5.71,10.73         c0.92,0.62,1.92,1.13,2.99,1.49c1.33,0.47,2.75,0.72,4.24,0.72c7.14,0,12.94-5.8,12.94-12.94         C715.84,368.09,710.04,362.28,702.9,362.28z M702.9,385.17c-5.48,0-9.95-4.46-9.95-9.95c0-5.48,4.47-9.95,9.95-9.95         c5.49,0,9.95,4.47,9.95,9.95C712.85,380.71,708.39,385.17,702.9,385.17z"/>
						</g>
					</g>
					<g>
						<g>
							<path class="st2" d="M987.67,377.51c-1.09-2.95-3.27-5.28-6.14-6.56c-5.48-2.44-12.01-0.23-14.78,5.02         c-44.12-20.18-119.99-55.26-124.51-58.76c-4.95-3.84-5.25-15.02-5.27-16.88v-0.26c0-0.15-0.02-0.3-0.07-0.44         c-0.06-0.23-0.19-0.45-0.36-0.63c-0.28-0.28-0.67-0.44-1.07-0.44h-58.91c-1.92,0-3.76,0.38-5.44,1.07         c-5.23,2.15-8.93,7.3-8.93,13.3v60.51c-5.3,1.59-27.44,9.16-36.7,26.97c-10.09,19.41-8.12,34.17-7.96,35.22         c0.01,0.02,0.01,0.03,0.01,0.04c0.12,0.75,0.79,1.3,1.55,1.26l6.4-0.32l0.94-0.05l2.05-0.1l10.31-0.51         c0.45-0.02,0.87-0.25,1.14-0.62c0.22-0.3,21.92-30.26,36.66-34.55c13.19-3.84,26.96-0.34,37.78,9.61         c8.29,7.63,23.11,18.22,46.63,33.32c14.27,9.17,51.87,30.54,67.38,39.3c1.63,0.93,3.43,1.39,5.24,1.39         c1.08,0,2.16-0.16,3.23-0.5c2.82-0.88,5.16-2.92,6.44-5.59l43.96-91.82C988.6,383.65,988.75,380.46,987.67,377.51z          M984.55,385.2l-12.46,26.04l-1.3,2.7l-14.96,31.25l-1.29,2.7l-13.95,29.13c-0.93,1.95-2.58,3.38-4.64,4.03         c-2.05,0.65-4.22,0.42-6.1-0.64c-15.48-8.75-53.03-30.09-67.24-39.21c-23.37-15.01-38.06-25.5-46.22-33.01         c-8.51-7.83-18.74-11.93-29.2-11.93c-3.81,0-7.64,0.54-11.44,1.65c-14.71,4.28-34.58,30.67-37.82,35.09l-17.57,0.87         c-0.26-4-0.28-16.57,7.78-32.08c9.72-18.68,35.66-25.7,35.93-25.77c0.65-0.18,1.11-0.77,1.11-1.45v-61.64         c0-6.28,5.11-11.38,11.38-11.38H834c0.15,3.84,1.05,13.87,6.41,18.02c5.71,4.42,105.21,50.03,125.1,59.12         c1.39,0.64,3.05,0.08,3.78-1.27c2.12-3.91,6.96-5.55,11.02-3.74c2.13,0.95,3.75,2.68,4.55,4.87         C985.67,380.73,985.55,383.1,984.55,385.2z"/>
						</g>
					</g>
					<g>
						<g>
							<path class="st2" d="M962.63,388.48L847.1,328.4c-1.83-0.95-3.99-1.1-5.93-0.41c-1.95,0.68-3.54,2.16-4.36,4.05l-20.8,47.62         c-2.33,5.34-0.32,11.63,4.67,14.63l108.25,65.05c1.04,0.63,2.23,0.95,3.43,0.95c0.64,0,1.29-0.09,1.91-0.28         c1.8-0.54,3.29-1.82,4.09-3.51l27.62-58.04C967.74,394.76,966.27,390.38,962.63,388.48z M963.28,397.17l-27.62,58.04         c-0.45,0.95-1.25,1.63-2.25,1.93c-1,0.31-2.04,0.18-2.94-0.36l-108.25-65.05c-3.71-2.23-5.2-6.91-3.47-10.87l20.8-47.62         c0.5-1.15,1.43-2.02,2.61-2.43c0.49-0.18,1-0.26,1.5-0.26c0.71,0,1.41,0.17,2.06,0.51l115.53,60.08         C963.45,392.28,964.34,394.93,963.28,397.17z"/>
						</g>
					</g>
					<g>
						<g>
							<path class="st2" d="M955.89,448.64l-4.38-2.42c-2.4-1.33-3.33-4.3-2.1-6.75l13.63-27.36c0.61-1.22,1.66-2.11,2.95-2.51         c1.3-0.4,2.67-0.26,3.86,0.4l2.71,1.5l-1.45,2.61l-2.71-1.5c-0.47-0.26-1.01-0.32-1.52-0.16c-0.51,0.16-0.92,0.51-1.16,0.99         l-13.63,27.36c-0.51,1.02-0.12,2.25,0.87,2.8l4.38,2.42L955.89,448.64z"/>
						</g>
					</g>
					<g>
						<g>
							<path class="st2" d="M636.13,402.27c-0.43-0.71-1-1.43-1.7-2.13c-0.39-0.39-0.81-0.75-1.25-1.06c-1.74-1.26-3.83-1.95-5.92-2         c-1.01-0.03-2.02,0.1-2.99,0.38c-0.29,0.08-0.58,0.18-0.87,0.29c-3.1,1.21-4.95,3.84-5.07,7.14         c-0.28,3.52,2.25,7.11,6.29,8.92c1.62,0.74,3.28,1.1,4.88,1.1c2.35,0,4.56-0.79,6.34-2.3c0.24-0.2,0.47-0.42,0.69-0.65         c0.11-0.11,0.2-0.24,0.27-0.39c0.03-0.07,0.31-0.64,0.53-1.56C637.77,408.27,638.02,405.31,636.13,402.27z M625.84,411.09         c-2.84-1.28-4.71-3.74-4.53-6.03c0.11-2.9,2.04-4.08,3.18-4.53c0.79-0.31,1.63-0.46,2.49-0.46c1.94,0,3.93,0.78,5.34,2.19         c3.31,3.31,2.22,6.91,1.88,7.81C631.7,412.46,628.27,412.18,625.84,411.09z"/>
						</g>
					</g>
					<g>
						<g>
							<path class="st2" d="M641.29,414.1c-3.29,0-6.91-2.28-7.06-2.38l1.61-2.52c0.87,0.55,3.58,1.99,5.58,1.91l0.1,2.99         C641.44,414.1,641.37,414.1,641.29,414.1z"/>
						</g>
					</g>
					<g>
						<g>
							<g>
								<path class="st2" d="M665.85,462.45c-1.18-1.78-3.65-2.98-6.58-2.98c-2.92,0-5.4,1.2-6.58,2.98          c-0.48,0.71-0.74,1.52-0.74,2.39c0,3.01,3.22,5.37,7.32,5.37c4.11,0,7.32-2.36,7.32-5.37          C666.59,463.97,666.33,463.16,665.85,462.45z M659.27,461.47c2.89,0,5.33,1.54,5.33,3.37s-2.44,3.38-5.33,3.38          c-2.89,0-5.32-1.55-5.32-3.38S656.38,461.47,659.27,461.47z"/>
							</g>
						</g>
					</g>
					<g>
						<g>
							<path class="st2" d="M664.74,462.45c0.18,0.39,0.28,0.82,0.3,1.26c0,0.02,0.01,0.03,0.02,0.04c0.34,1.3,0.04,2.69-1.04,3.55         c-0.81,0.64-1.78,1-2.79,1.21c-0.89,0.18-1.84,0.34-2.75,0.32c-0.97-0.02-1.99-0.26-2.85-0.71         c-0.15-0.02-0.31-0.03-0.45-0.08c-0.34-0.12-0.5-0.22-0.77-0.45c-0.19-0.16-0.34-0.36-0.47-0.57         c-0.23-0.37-0.39-0.82-0.47-1.24c-0.09-0.44-0.15-0.9-0.14-1.35c0.01-0.4,0.04-0.83,0.17-1.21c0.09-0.28,0.22-0.55,0.39-0.78         h-35.54v2.16c0.36,0.04,0.72,0.1,1.07,0.19c1.03,0.27,1.92,0.85,2.59,1.65h0.43V467c0.69,1.07,0.93,2.39,1.01,3.64         c0.04,0.66-0.43,1.18-1.01,1.39v32.65h62.81v-38.33h1.46c0.28-0.43,0.61-0.83,1.01-1.19c0.96-0.87,2.08-1.52,3.18-2.19v-0.52         H664.74z"/>
						</g>
					</g>
					<g>
						<g>
							<rect x="617.51" y="446.61" class="st2" width="74.91" height="3.38"/>
						</g>
					</g>
					<g>
						<g>
							<rect x="617.32" y="435.62" class="st2" width="109.11" height="7.8"/>
						</g>
					</g>
					<g>
						<g>
							<path class="st2" d="M705.68,599.1h-2.99v-29.79c0-0.81-0.23-1.6-0.68-2.28l-17.68-27.13l2.51-1.63l17.68,27.13         c0.76,1.17,1.16,2.52,1.16,3.92V599.1z"/>
						</g>
					</g>
					<g>
						<g>
							<path class="st2" d="M619.01,941.45h-2.99V602.67c0-2.76,2.25-5.01,5.01-5.01h84.6c3.66,0,6.63,2.98,6.63,6.63         c0,3.66-2.98,6.63-6.63,6.63h-6.99c-2.27,0-4.39,0.89-5.97,2.51c-1.59,1.62-2.44,3.75-2.4,6.02l5.86,320.15l-2.99,0.05         l-5.86-320.15c-0.06-3.07,1.1-5.98,3.25-8.17c2.15-2.19,5.03-3.4,8.11-3.4h6.99c2.01,0,3.64-1.63,3.64-3.64         c0-2.01-1.63-3.64-3.64-3.64h-84.6c-1.11,0-2.02,0.9-2.02,2.02V941.45z"/>
						</g>
					</g>
					<g>
						<g>
							<path class="st2" d="M634.34,977.28c-9.34,0-15.27-0.39-15.37-0.39c-0.79-0.05-1.4-0.71-1.4-1.49v-15.74h2.99v14.32         c4.25,0.21,17.77,0.72,34.69-0.34c8.82-0.55,18.11-2.12,32.18-4.49c19.07-3.21,45.18-7.61,88.68-12.67         c51.89-6.04,89.78-7.06,107.75-7.13c6.91-0.03,12.52-5.66,12.52-12.56v-33.28c0-7.62-6.2-13.82-13.82-13.82h-2.05         c-0.5,0-0.96-0.25-1.24-0.66L708.21,634.85c-0.18-0.27-0.27-0.58-0.25-0.9l1.3-29.72l2.99,0.13l-1.28,29.22L881.33,886.7         h1.25c9.27,0,16.81,7.54,16.81,16.81v33.28c0,8.54-6.95,15.52-15.5,15.56c-17.9,0.07-55.67,1.09-107.42,7.11         c-43.43,5.06-69.5,9.45-88.53,12.65c-14.16,2.38-23.51,3.96-32.49,4.52C647.46,977.12,640.22,977.28,634.34,977.28z"/>
						</g>
					</g>
					<g>
						<g>
							<path class="st2" d="M634.2,961.8c-5.44,0-9.86-0.18-13.25-0.4c-5.69-0.37-10.14-5.12-10.14-10.8v-0.29         c0-2.92,1.15-5.65,3.23-7.7c2.09-2.06,4.86-3.17,7.81-3.12c14.89,0.25,42.29,0.55,58.59-0.18         c10.77-0.49,26.05-3.2,43.74-6.34c20.32-3.61,43.34-7.7,67.82-10.04c45.79-4.38,104.86-6.23,105.46-6.25l0.09,2.99         c-0.59,0.02-59.57,1.87-105.26,6.24c-24.35,2.33-47.32,6.41-67.58,10.01c-17.8,3.16-33.16,5.89-44.13,6.39         c-16.38,0.74-43.85,0.43-58.77,0.18c-2.14-0.03-4.15,0.77-5.67,2.26c-1.51,1.48-2.34,3.46-2.34,5.57v0.29         c0,4.11,3.23,7.54,7.34,7.81c7.39,0.49,19.78,0.77,36.89-0.63c12.62-1.03,30.34-4.18,50.85-7.82         c27.8-4.93,62.39-11.07,96.34-13.9c57.82-4.83,92.12-5.27,92.46-5.27l0.04,2.99c-0.34,0-34.55,0.45-92.25,5.26         c-33.8,2.82-68.32,8.95-96.06,13.87c-20.59,3.65-38.37,6.81-51.13,7.85C648.82,961.53,640.77,961.79,634.2,961.8z"/>
						</g>
					</g>
					<g>
						<g>
							<path class="st2" d="M875.98,918.33h-2.99v-10.68c0-4.83,3.93-8.76,8.76-8.76h0.59c2.79,0,5.06,2.27,5.06,5.06v13.8h-2.99         v-13.8c0-1.14-0.93-2.07-2.06-2.07h-0.59c-3.18,0-5.77,2.59-5.77,5.77V918.33z"/>
						</g>
					</g>
					<g>
						<g>
							<path class="st2" d="M718.47,936.95l-5-0.38c-4.77-0.03-8.64-3.92-8.64-8.7v-2.9c0-3.4,1.35-6.56,3.81-8.91         c2.45-2.34,5.66-3.55,9.06-3.4c6.02,0.27,13.6,0.3,22.54,0.1c16.35-0.37,55.57-4.8,85.59-8.45         c7.46-0.91,13.59-5.61,16.4-12.58c2.81-6.97,1.66-14.61-3.09-20.44c-24.55-30.16-66.83-82.03-74.12-90.53         c-6.73-7.85-18.97-24.59-28.06-37.25c-2.04-2.84-2.31-6.54-0.69-9.64c1.6-3.08,4.73-4.98,8.19-4.98c0.03,0,0.06,0,0.09,0         l7.4,0.07c2.87,0.03,5.57,1.45,7.21,3.8c24.97,35.79,106.61,153.1,108.57,159.88c2.19,7.57-0.73,19.65-16.18,28.82         l-1.53-2.57c13.08-7.76,16.88-18.36,14.83-25.41c-1.48-5.07-59.19-88.82-108.15-159c-1.09-1.56-2.87-2.5-4.78-2.52l-7.4-0.07         c-0.02,0-0.04,0-0.07,0c-2.37,0-4.44,1.25-5.53,3.36c-1.11,2.13-0.93,4.57,0.47,6.52c9.05,12.61,21.24,29.28,27.9,37.05         c7.31,8.53,49.61,60.42,74.17,90.59c5.44,6.69,6.77,15.45,3.55,23.45c-3.22,7.99-10.26,13.39-18.82,14.43         c-30.09,3.66-69.41,8.09-85.88,8.47c-9.01,0.21-16.66,0.17-22.74-0.1c-2.57-0.1-5,0.8-6.86,2.57         c-1.86,1.78-2.88,4.17-2.88,6.74v2.9c0,3.15,2.56,5.71,5.71,5.71c0.04,0,0.08,0,0.11,0l5.05,0.39L718.47,936.95z"/>
						</g>
					</g>
					<g>
						<g>
							<path class="st2" d="M776.8,785.54c-2.38,0-4.74-1.05-6.36-3.05l-35.03-43.28l2.33-1.88l35.03,43.28         c1.76,2.18,4.9,2.57,7.15,0.89c2.54-1.9,3.19-5.48,1.5-8.15l-24.74-38.93l2.52-1.6l24.74,38.93         c2.53,3.99,1.55,9.32-2.23,12.15C780.23,785.01,778.51,785.54,776.8,785.54z"/>
						</g>
					</g>
					<g>
						<g>
							<path class="st2" d="M829.47,835.8l-32.98-48.05c-1.21-1.77-3.05-2.89-5.03-3.27c-1.81-0.35-3.74-0.08-5.43,0.9         c-1.98,1.15-3.38,3.08-3.84,5.32c-0.47,2.23,0.04,4.57,1.39,6.41l9.9,13.48l0.05,0.07l0.02,0.02L818,843.95         c1.14,1.56,2.82,2.55,4.73,2.81c0.1,0.01,0.2,0.02,0.3,0.03c0.22,0.03,0.44,0.04,0.66,0.04c1.57,0,3.08-0.53,4.34-1.51         c1.33-1.05,2.19-2.5,2.52-4.05C830.94,839.43,830.61,837.45,829.47,835.8z M826.18,842.97c-0.87,0.68-1.95,0.97-3.05,0.83         c-1.1-0.15-2.07-0.73-2.72-1.62l-34.42-46.85c-0.85-1.15-1.17-2.62-0.88-4.02c0.3-1.4,1.18-2.62,2.42-3.34         c2.2-1.28,5.06-0.63,6.5,1.47l32.98,48.05C828.21,839.25,827.85,841.65,826.18,842.97z"/>
						</g>
					</g>
					<g>
						<g>
							<g>
								<path class="st2" d="M829.08,858.35l-2.81-3.42c-2.07-3.4-1.11-7.69,2.13-9.85c3.02-2.01,7.06-1.29,9.2,1.65l3.53,5.34          l-1.27,1.27l-4.69-4.86c-1.18-1.62-3.43-2.02-5.11-0.9c-1.9,1.27-2.46,3.79-1.28,5.74l2.15,3.82L829.08,858.35z"/>
							</g>
						</g>
					</g>
					<g>
						<g>
							<path class="st2" d="M752.07,931.19l-10.6-0.57c-3.9-0.11-7.1-3.17-7.41-7.1l-0.06-0.75c-0.3-3.92,2.38-7.42,6.24-8.15         l11.19-2.42l0.63,2.92l-11.23,2.42c-2.4,0.45-4.04,2.59-3.85,4.99l0.06,0.75c0.19,2.4,2.14,4.27,4.55,4.34l10.63,0.57         L752.07,931.19z"/>
						</g>
					</g>
					<g>
						<g>
							<path class="st2" d="M848.38,919.52l-2.99-0.04l0.13-8.95c0.05-3.34,1.49-6.55,3.96-8.8c2.37-2.16,5.46-3.28,8.65-3.16         l8.22,0.32l-0.11,2.99l-8.22-0.32c-2.41-0.1-4.73,0.75-6.52,2.38c-1.86,1.7-2.95,4.11-2.99,6.63L848.38,919.52z"/>
						</g>
					</g>
					<g>
						<g>
							<path class="st2" d="M819.83,908.34c-2.3,0-4.31,1.36-5.35,3.36c-0.48,0.92-0.75,1.97-0.75,3.09c0,1.34,0.38,2.58,1.04,3.61         c0.69,1.08,1.68,1.93,2.85,2.4h0.02c0.68,0.29,1.41,0.45,2.19,0.45c1.07,0,2.08-0.29,2.96-0.81c1.88-1.1,3.15-3.22,3.15-5.65         C825.94,911.23,823.2,908.34,819.83,908.34z M819.83,919.25c-2.26,0-4.1-2-4.1-4.47c0-2.46,1.84-4.46,4.1-4.46         c2.27,0,4.11,2,4.11,4.46C823.94,917.25,822.1,919.25,819.83,919.25z"/>
						</g>
					</g>
					<g>
						<g>
							<path class="st2" d="M814.48,911.7c-0.49-1.17-1.22-2.12-2.09-2.75c-0.76-0.56-1.63-0.87-2.57-0.87         c-1.28,0-2.44,0.58-3.35,1.56c-1.25,1.33-2.04,3.42-2.04,5.8c0,2.63,0.96,4.9,2.43,6.18c0.85,0.76,1.86,1.19,2.96,1.19         c1.33,0,2.53-0.63,3.47-1.68c0.64-0.73,1.15-1.66,1.48-2.73c0.29-0.9,0.44-1.9,0.44-2.96         C815.21,914.05,814.95,912.77,814.48,911.7z M806.43,915.43c0-2.91,1.55-5.37,3.39-5.37s3.39,2.46,3.39,5.37         c0,2.92-1.55,5.38-3.39,5.38S806.43,918.36,806.43,915.43z"/>
						</g>
					</g>
					<g>
						<g>
							<path class="st2" d="M720.62,911.19c-3.17,0-6.26-1.15-8.67-3.25c-2.76-2.42-4.39-5.92-4.48-9.59l-1.86-90.17l2.99-0.06         l1.86,90.17c0.06,2.88,1.29,5.51,3.46,7.4c2.17,1.9,4.93,2.77,7.8,2.45l102.84-11.32c4.76-0.52,8.67-3.48,10.47-7.92         c1.8-4.44,1.05-9.29-2-12.98l-99.79-120.79c-3.85-4.66-10.62-5.77-15.76-2.58l-1.82,1.13c-1.01,0.63-2.2,0.81-3.35,0.52         c-1.15-0.29-2.11-1.02-2.69-2.06c-0.58-1.03-0.72-2.27-0.37-3.41c0.35-1.13,1.16-2.08,2.23-2.6l13.13-6.42         c0.45-0.22,0.64-0.75,0.43-1.21l-0.89-1.94c-0.21-0.45-0.74-0.67-1.2-0.49l-12.23,4.63c-5.48,2.08-8.44,7.9-6.88,13.56         l2.75,9.94l-2.88,0.8l-2.75-9.94c-1.98-7.15,1.76-14.52,8.7-17.15l12.23-4.63c1.93-0.73,4.11,0.17,4.97,2.04l0.89,1.94         c0.9,1.94,0.09,4.21-1.84,5.15l-13.13,6.42c-0.33,0.16-0.58,0.45-0.68,0.8c-0.11,0.35-0.07,0.72,0.11,1.05         c0.18,0.32,0.47,0.54,0.83,0.63c0.35,0.09,0.72,0.03,1.03-0.16l1.82-1.13c6.4-3.98,14.84-2.6,19.64,3.21l99.79,120.79         c3.76,4.55,4.68,10.53,2.46,16.01c-2.22,5.47-7.05,9.12-12.92,9.77l-102.84,11.32C721.58,911.17,721.1,911.19,720.62,911.19z         "/>
						</g>
					</g>
					<g>
						<g>
							<rect x="742.23" y="744.1" class="st2" width="22.82" height="2.99"/>
						</g>
					</g>
					<g>
						<g>
							<path class="st2" d="M676.49,653.98c-3.52,0-6.37,2.86-6.37,6.37v49.94c0,3.52,2.85,6.37,6.37,6.37         c3.51,0,6.37-2.85,6.37-6.37v-49.94C682.86,656.84,680,653.98,676.49,653.98z M679.87,710.29c0,1.87-1.52,3.38-3.38,3.38         c-1.87,0-3.38-1.51-3.38-3.38v-49.94c0-1.86,1.51-3.38,3.38-3.38c1.86,0,3.38,1.52,3.38,3.38V710.29z"/>
						</g>
					</g>
					<g>
						<g>
							<path class="st2" d="M682.92,732.4h-8.38c-0.83,0-1.5,0.67-1.5,1.5v89.63c0,3.14,2.55,5.69,5.69,5.69h0.59         c2.81,0,5.1-2.29,5.1-5.1V733.9C684.42,733.07,683.75,732.4,682.92,732.4z M681.43,824.12c0,1.16-0.95,2.11-2.11,2.11h-0.59         c-1.49,0-2.7-1.21-2.7-2.7v-88.14h5.4V824.12z"/>
						</g>
					</g>
					<g>
						<g>
							<path class="st2" d="M676.78,843.4h-2.15c-3.78,0-6.86,3.07-6.86,6.86v50.03c0,4.06,3.3,7.35,7.35,7.35         c4.7,0,8.52-3.82,8.52-8.52v-48.86C683.64,846.47,680.56,843.4,676.78,843.4z M680.65,899.12c0,3.05-2.48,5.53-5.53,5.53         c-2.4,0-4.35-1.95-4.35-4.36v-50.03c0-2.14,1.73-3.87,3.86-3.87h2.15c2.13,0,3.87,1.73,3.87,3.87V899.12z"/>
						</g>
					</g>
					<g>
						<g>
							<path class="st2" d="M677.92,919.79h-4.55c-3.73,0-6.77,3.04-6.77,6.76c0,3.73,3.04,6.77,6.77,6.77h4.55         c3.73,0,6.76-3.04,6.76-6.77C684.68,922.84,681.65,919.79,677.92,919.79z M677.92,930.34h-4.55c-2.08,0-3.78-1.7-3.78-3.78         c0-2.08,1.7-3.77,3.78-3.77h4.55c2.08,0,3.77,1.69,3.77,3.77C681.69,928.64,680,930.34,677.92,930.34z"/>
						</g>
					</g>
					<g>
						<g>
							<path class="st2" d="M747.38,715.91c-0.14-1.1-0.56-2.15-1.24-3.07l-29.83-40.3c-1.61-2.17-4.28-3.03-6.82-2.19         c-2.59,0.85-4.26,3.19-4.26,5.97v31.12c0,2.97,1.15,5.74,3.25,7.79c0.68,0.67,1.43,1.24,2.24,1.69         c0.91,0.52,1.9,0.9,2.93,1.11c0.48,0.1,0.97,0.17,1.46,0.2c0.3,0.02,0.6,0.03,0.9,0.02l13.61-0.25l3.17-0.06l3.86,3.65         c1.22,1.15,2.79,1.74,4.37,1.74c0.45,0,0.9-0.05,1.34-0.15c0.84-0.18,1.64-0.53,2.37-1.05c0.22-0.16,0.43-0.33,0.62-0.52         c0.05-0.03,0.1-0.08,0.15-0.14c0.99-0.97,1.64-2.25,1.86-3.66C747.46,717.17,747.47,716.53,747.38,715.91z M743.51,719.24         c-0.16,0.17-0.34,0.32-0.53,0.46l-0.03,0.02c-1.32,0.94-3.06,0.81-4.25-0.31l-4.3-4.06c-0.28-0.26-0.65-0.41-1.03-0.41h-0.03         l-17.39,0.32c-2.06,0.02-3.92-0.73-5.38-2.16c-1.17-1.16-1.94-2.63-2.22-4.24c-0.09-0.46-0.13-0.94-0.13-1.42v-31.12         c0-1.77,1.14-2.78,2.21-3.13c1.02-0.34,2.47-0.22,3.47,1.13l23.36,31.55l2.22,2.99l4.26,5.76c0.58,0.79,0.82,1.76,0.67,2.73         c-0.11,0.72-0.42,1.36-0.89,1.88L743.51,719.24z"/>
						</g>
					</g>
					<g>
						<g>
							<rect x="707.5" y="705.87" class="st2" width="32.09" height="2.99"/>
						</g>
					</g>
					<g>
						<g>
							<path class="st2" d="M743.86,731.49c-0.83,0-1.5-0.67-1.5-1.5v-9.08c0-0.44,0.19-0.85,0.52-1.13l4.51-3.89         c0.63-0.54,1.57-0.47,2.11,0.16c0.54,0.63,0.47,1.57-0.16,2.11l-4,3.44v8.4C745.35,730.82,744.68,731.49,743.86,731.49z"/>
						</g>
					</g>
					<g>
						<g>
							<path class="st2" d="M725.52,733.57h-17.3c-3.87,0-7.02-3.15-7.02-7.02v-2.28c0-0.83,0.67-1.5,1.5-1.5s1.5,0.67,1.5,1.5v2.28         c0,2.22,1.81,4.03,4.03,4.03h17.3c2.94,0,5.33-2.39,5.33-5.33c0-2.94-2.39-5.33-5.33-5.33h-33.75c-0.83,0-1.5-0.67-1.5-1.5         c0-0.83,0.67-1.5,1.5-1.5h33.75c4.59,0,8.32,3.73,8.32,8.32S730.1,733.57,725.52,733.57z"/>
						</g>
					</g>
					<g>
						<g>
							<path class="st2" d="M706.4,763.48c-1.05,0-2.04,0.22-2.94,0.6c-2.63,1.15-4.47,3.77-4.47,6.81c0,3.09,1.9,5.75,4.59,6.87         c0.87,0.35,1.82,0.55,2.82,0.55c0.04,0,0.08,0,0.12-0.01c4.04-0.06,7.29-3.36,7.29-7.41         C713.81,766.81,710.49,763.48,706.4,763.48z M706.4,775.32c-2.44,0-4.42-1.99-4.42-4.43c0-2.43,1.98-4.42,4.42-4.42         c2.44,0,4.42,1.99,4.42,4.42C710.82,773.33,708.84,775.32,706.4,775.32z"/>
						</g>
					</g>
					<g>
						<g>
							<g>
								<path class="st2" d="M705.16,775.6c-0.83,0-1.5,0.67-1.5,1.5c0,1.38-1.12,2.5-2.5,2.5h-0.55c-4.12,0-8.17-3.88-8.31-8.04          c-0.51-0.03-1.02-0.06-1.53-0.08c-0.04,1.08-0.18,2.16-0.39,3.23c1.21,4.53,5.33,7.88,10.23,7.88h0.55          c3.03,0,5.49-2.46,5.49-5.49C706.66,776.27,705.99,775.6,705.16,775.6z"/>
							</g>
						</g>
					</g>
					<g>
						<g>
							<path class="st2" d="M734.95,855.94h-6.88c-2.81,0-5.36-1.77-6.35-4.4l-26.41-70.31c-0.29-0.77,0.1-1.64,0.87-1.93         c0.77-0.29,1.64,0.1,1.93,0.87l26.41,70.31c0.55,1.47,1.98,2.46,3.55,2.46h6.88c1.2,0,2.31-0.55,3.03-1.51         c0.72-0.96,0.95-2.17,0.61-3.32c-6.13-21.3-20.45-71.19-20.98-74.31c-0.66-3.82-1.54-21.41-1.58-22.16         c-0.04-0.82,0.59-1.53,1.42-1.57c0.82-0.05,1.53,0.59,1.57,1.42c0.01,0.18,0.91,18.16,1.54,21.8         c0.36,2.06,8.17,29.72,20.91,73.99c0.59,2.07,0.19,4.23-1.1,5.95C739.07,854.96,737.1,855.94,734.95,855.94z"/>
						</g>
					</g>
					<g>
						<g>
							<path class="st2" d="M726.87,854.06l-2.65-1.38l1.19-2.28c1.41-2.7,1.61-5.89,0.56-8.75l-4.34-11.83         c-1.56-4.26-4.35-7.9-8.06-10.52l-4.58-3.24l1.73-2.44l4.58,3.24c4.21,2.97,7.37,7.1,9.14,11.93l4.34,11.82         c1.34,3.65,1.08,7.72-0.72,11.17L726.87,854.06z"/>
						</g>
					</g>
					<g>
						<g>
							<rect x="717.84" y="819.31" class="st2" width="13.56" height="1.99"/>
						</g>
					</g>
					<g>
						<g>
							<rect x="721.35" y="824.04" class="st2" width="11.75" height="1.99"/>
						</g>
					</g>
					<g>
						<g>
							<rect x="722.87" y="828.87" class="st2" width="11.75" height="1.99"/>
						</g>
					</g>
					<g>
						<g>
							<rect x="725.26" y="835.36" class="st2" width="11.75" height="1.99"/>
						</g>
					</g>
					<g>
						<g>
							<rect x="728.96" y="844.67" class="st2" width="10.24" height="1.99"/>
						</g>
					</g>
					<g>
						<g>
							<path class="st2" d="M751.18,731.68c-1.73,0-2.89-2.03-2.89-5.06s1.16-5.06,2.89-5.06c1.73,0,2.89,2.03,2.89,5.06         S752.9,731.68,751.18,731.68z"/>
						</g>
					</g>
				</g>
				<g>
					<rect x="624.27" y="299.62" class="st2" width="2.99" height="98.64"/>
				</g>
				<g>
					<path class="st2" d="M635.68,299.62h3.5c-1.9,2.84-3.01,6.25-3.01,9.92v92.72h-2.99v-92.72       C633.18,305.96,634.09,302.58,635.68,299.62z"/>
					<path class="st2" d="M678.83,299.62v80.34c0,3.7-2.29,6.88-5.53,8.19c-0.93,0.38-1.93,0.6-2.99,0.64       c-0.11,0.01-0.22,0.01-0.33,0.01c-1.79,0-3.25-1.46-3.25-3.25v-81.22c0-1.66-0.32-3.25-0.91-4.71h3.17       c0.48,1.49,0.73,3.07,0.73,4.71v81.22c0,0.14,0.12,0.26,0.26,0.26c3.23,0,5.86-2.63,5.86-5.85v-80.34H678.83z"/>
				</g>
				<g>
					<path class="st2" d="M598.97,299.62l-0.09,49.1c0,0.82-0.67,1.49-1.49,1.49h-11.12v-2.99h9.62l0.09-45.4v-1.94h-3.51l0.75-0.26       H598.97z"/>
				</g>
				<g>
					<path class="st2" d="M685.46,299.62h2.99v78.29c-0.02,0.33-0.61,8.02-5.83,16.18c-4.52,7.07-12.15,11.59-14.39,12.81       c-0.36,0.2-0.58,0.31-0.63,0.34l-1.34-2.67c0.03-0.02,0.79-0.4,1.97-1.13c0.6-0.36,1.31-0.81,2.08-1.34       c0.92-0.64,1.95-1.39,2.99-2.25c2.39-1.93,4.92-4.43,6.8-7.37c4.59-7.18,5.31-14.11,5.36-14.73V299.62z"/>
				</g>
				<g>
					<rect x="670.31" y="388.03" class="st2" width="2.99" height="14.92"/>
				</g>
				<g>
					<path class="st2" d="M837.21,299.62c-0.09,0.25-0.16,0.49-0.24,0.7c-0.04,0.13-0.09,0.26-0.13,0.37l-2.11-0.77l-0.69-0.26       c0-0.01,0.01-0.03,0.01-0.04c0.12-0.31,0.24-0.66,0.37-1.07c0.03-0.11,0.07-0.23,0.1-0.35l0.33,0.35h0.62       c0.4,0,0.79,0.16,1.07,0.44c0.17,0.18,0.3,0.4,0.36,0.63H837.21z"/>
				</g>
				<g>
					<path class="st2" d="M835.48,299.21l-0.44,0.42l-0.31,0.3l-1.41,1.35l-1.59-1.65l-1.03-1.07h3.72c0.03-0.11,0.07-0.23,0.1-0.35       l0.33,0.35L835.48,299.21z"/>
				</g>
			</g>
		</g>
		<path class="st4" d="M836.9,299.62h-65.78c1.68-0.69,3.52-1.07,5.44-1.07h57.86c0.03-0.11,0.07-0.23,0.1-0.35l0.33,0.35h0.62    c0.4,0,0.79,0.16,1.07,0.44C836.71,299.18,836.84,299.4,836.9,299.62z"/>
	</g>
</g>
</svg>